<svg id="Layer_1" data-name="Layer 1" xmlns="http://www.w3.org/2000/svg" viewBox="0 0 1144.98 37.42"><path d="M986.58,18c-1.09-.38-1.89-.82-.55-1,.87-.1,1.81-.1,2.72-.13,2.13-.08,2.21-.06,1.43.92-.46.58-.19.83,1.36.76a14.59,14.59,0,0,1,2.16-.07c.44.07,1,.57.9.61-1.67.61-1.61,1.91-4.75,2-.34,0-.63.42-.94.65l1.54.06c.18,0,.36,0,.55,0,1.13,0,1.47-1,3.1-.4-.88.3-1.79.59-2.62.91-.21.08-.2.26-.3.39a36.86,36.86,0,0,0-4.07-.18c0-.12.57-.26.52-.33a3.94,3.94,0,0,0-.87-.65c-.45.15-1.16.27-1.29.46s.54.36,1.64.52c.19.41-.18.91-.16,1.52,0,.89,3.27.36,2.81,1.25.63,0,1.3,0,1.89-.05.81-.09,1.57-.27,2.35-.41,1.14.19-3,1,.62.89a16.38,16.38,0,0,1,1.83.17,15.38,15.38,0,0,1-1.84.69c-2.39-.7-4.25-.05-6.28.29-.47.08-1.69.36-1.18-.42.84-1.29.29-1.46-2.68-1.18a14.39,14.39,0,0,0-2.11.48l-1-.73a6.46,6.46,0,0,0-.71.19,8.27,8.27,0,0,1-5.88.54c-.83-.25-1.28-.54-.48-.9a12.35,12.35,0,0,1,3.15-1c.34,0,.15,0-.05-.13l-.44.22c.24.06.46.13.72.17,0,0,.2-.09-.23-.26-.59-.26-.63-.4-.7-.65,0,0,0,0,0,.1a5,5,0,0,0,.8-.18c.07,0-.16-.17-.25-.26a1.58,1.58,0,0,0-.58.34c-1.38,0-2.8-.14-4.21-.26.19-.28.37-.56-.8-1.75-1.25-.27.76.84,1.9.87a22,22,0,0,0,2.53-.23l-1.9-1.59c-1.5,1-2.11-.13-3.16-.19-.25,0-.57.18.63,1.14a4.63,4.63,0,0,1-3.56,1.58c-2,.06-1.62.3-.39.68a.82.82,0,0,1,0,1.54,3.67,3.67,0,0,1-1.44,0c-.64-.24-.56-1.23-2.07-.24-.22-.1-.65-.22-.62-.32a2.64,2.64,0,0,1,.67-1.2c.4-.37,1.71-.63.58-1.12a10.43,10.43,0,0,1-1.81.66c-.52.1-1.63-.11-1.89,0-1.24.6-1.2.13-1.49-.22a2.35,2.35,0,0,0-1-.08,11.89,11.89,0,0,0-1.75.86,3.26,3.26,0,0,1-3.09.1,10.61,10.61,0,0,0-1.62-.28c0,1.58-2.33.35-3.53.48-.37,0-.85.27-.87.42-.16,1.26.33,1.44,4,1.7a3.41,3.41,0,0,1,1,.39,9.87,9.87,0,0,1-1,.61,4.57,4.57,0,0,1-1,.37c-2.47-.79-6.2.43-8.34-.85-.26.11-.76.21-.74.31.09.53-.72.64-1.64.51a.55.55,0,0,1-.35-.71c.09-.21,1.21-.42-.18-.55-.33,0-.71,0-1.08,0-3.56.08.58-.69-.73-.91.45,0,.85,0,1.23,0,1,0,1.71-.8,2.91-.13a2.94,2.94,0,0,0,1-.06c.47-.51,1.51-1.15,1.1-1.53-.72-.65-1.2.49-2.23.25-.14,0-.38,0-.49,0a2.87,2.87,0,0,0-2.63,0c-.55.4-.63.91-.88,1.57-.9.28-3-.34-3.05.73,0,.57-1.31.35-2.08.44s-1.9-.11-2.14.44a6.07,6.07,0,0,1-.4.58,3,3,0,0,0-.73-.54,3.28,3.28,0,0,0-1.23-.26c-3.53,0-3.53,0-4.89-1.36a1.25,1.25,0,0,1,.68.17c.17-.11.51-.23.47-.33s-.37-.35-.57-.53a1.25,1.25,0,0,0-.58.69,10.81,10.81,0,0,1-1.8.46c-.61.2-1,.46-1.34-.05-.17-.22-.11-.68-1.09-.26-.45.19-1.82.46-.23.8a2.91,2.91,0,0,1,.85.28c.2.13.42.39.28.44a20.9,20.9,0,0,1-2.12.57,1.87,1.87,0,0,1-.62-.31c-.68-.71-.94-1.56-2.08-2.11s-1-.83,0-1.29c.18-.09-.28-.38-.44-.57a5.93,5.93,0,0,0-1.06.36c-1.15.76-1.38,1.7-4.09,2.08-4.35.62-4.26.72-9.64-.51l1-.39L899.75,24c-.76-.83-2.31-.17-4.19-.62-.42-.1-.1.12.22.35.14-.15.45-.32.38-.45a6.2,6.2,0,0,0-.85-.85c-.15.19-.29.38.25.95,1.12,1-2.74.81-1.15,1.81.34.21.74.89-.63.85s-2.12.73-3.63.37a23.23,23.23,0,0,1-2.34-.39c-1.58-.66-2.1-.41-2.39.33a13.65,13.65,0,0,1-1.83-.07c-.12,0,0-.29-.15-.42-.44-.32.57-1.07-1-.94-1.24.1-1,.6-.18,1.12s-1,1.07-2.46,1.11c-.45,0-7.64-.8-8.57-1a21,21,0,0,1,2.69-.55c1-.09,1.85-.19,1.39-.66a5.28,5.28,0,0,0-1.71-.24,14.89,14.89,0,0,0-1.63.06,6,6,0,0,0-1.71-.34c-.14-.06.15-.16.43-.27a3,3,0,0,0-.82-.19,11.37,11.37,0,0,0-1.32.23,7.47,7.47,0,0,0,1.71.23,6,6,0,0,1,1.71.34l-.74,1.39a61.11,61.11,0,0,1-6.89-.07,16.76,16.76,0,0,0-5.75.13c-1.63.44-3.8.07-5.67-.16a35.51,35.51,0,0,0-7.7.24,6.21,6.21,0,0,1-1.51.16c-3.9-.4-8.13.25-11.86-.63a26,26,0,0,0-6.71-.37c-2.07.06-4.1.48-6.39-.08a14.35,14.35,0,0,0-4.61.36c-2.06.41-3.51.77-5.23-.32-.64-.4-3.08-.54-5-.37-1.3.11-2.76-.79-4.11.19-1,.72-2.82-.73-4.12.1-3.72-.62-8.05.52-11.66-.68a13.45,13.45,0,0,0-3.23.09c-1,.05-1.68.07-1.95-.47s-1-.4-1,0c.09.77-1.28.61-2.21.62a12.84,12.84,0,0,1-1.88-.34c-2.88-.48-5.69-1.35-8.84-.14-.19.07-1.8-.57-3.08,0a10.41,10.41,0,0,1-3.24-.15,14.57,14.57,0,0,0-7,.23,8.21,8.21,0,0,1-5-.26,4.79,4.79,0,0,0-4.47-.18c-.47.22-2.72-.32-3.92-.17a20.13,20.13,0,0,1-3.32.55,15.5,15.5,0,0,1-2.18.07c-4.67-1.24-9.52-.27-14.29-.26a33.53,33.53,0,0,1-4.8,0c-1.36-.18-3.36.42-5,.69-1.37.22-3,.92-3.52-.31-1.66,0-3.34-1.1-5,0-1.62-.23-3.2-.54-4.87-.67s-3.65-.87-5.28.15c-.14.09-1.23-.12-1.88-.11a19.64,19.64,0,0,0-4,.18,3.74,3.74,0,0,1-2.75.05,6.68,6.68,0,0,0-3.44-.42c-3.29.38-7-.16-10,.83-2-.78-4.81,1-6.81-.39A11.48,11.48,0,0,0,657.6,24c-3.17-.08-6.4-.24-9.52-.09s-6.39,0-9.56.7a24.73,24.73,0,0,1-7.08-.19c-2.3-.32-4.54.28-6.38-.05a53.53,53.53,0,0,0-6-.53,42.42,42.42,0,0,0-8.42,0c-5.26.84-10.72.78-16.09,1.07-2.59.14-5.29-.08-7.94,0-1.06,0-2.12.38-3.17.37s-2.13-.55-2.8-.44c-3.55.57-6.83-.39-10.33-.17-2.2.14-4.58.65-6.92-.07-.35-.11-1.73.5-2.66.5-2.83,0-5.71.73-8.5,0-1.67.41-3.43-.33-5.28.15-1.56.41-4,.34-5.29.82a6.72,6.72,0,0,1-5.14,0c-2-.68-4.71-.58-7-.6-4.23,0-8.67-1-12.79.29a14,14,0,0,1-2.72.14,36.76,36.76,0,0,0-7.18.75c-1.17.29-2.62.74-3.86,0s-1.95.59-3.54.14c-1.2-.34-4.6,0-6.63.09a38.75,38.75,0,0,1-8.47-.12,43.85,43.85,0,0,0-9.31-.44c-2.21.12-4.43.28-6.64.28a40.5,40.5,0,0,1-5.58-.39,3.38,3.38,0,0,0-1.61.15,17.26,17.26,0,0,1-3.66.2c-3.43-.28-6.74-.59-9.33.77A4.66,4.66,0,0,1,447,27c-1.47-.19-2.92-.41-4.39-.59a3.61,3.61,0,0,0-1.15,0c-.55.2-1.33.67-1.37.66-1.87-.53-4.2.13-5.65-.19a22,22,0,0,0-5.28-.15,15.84,15.84,0,0,1-4.17-.22c-.58-.15-2.05.39-3.17.45-1,0-2-.22-3-.21a13.28,13.28,0,0,0-3.65.28c-1,.44-2.3-.2-3.33.4-.56.33-2.87.1-4.52-.1-1.33-.17-2.59-.37-3.9-.54a32.38,32.38,0,0,0-5.31,0c-.72,0-1.48.42-2.09.38a66.74,66.74,0,0,0-9.92-.33c-2.77-1.1-4.29-.58-5.33.65a2.53,2.53,0,0,1-1,.08c-.37-.11-.79-.31-.82-.48-.15-.82-.16-.87-1.41-.76a16.51,16.51,0,0,1-3,.34c-2-.71-2.66.83-4.22.33a6,6,0,0,0-3.85.07,4.3,4.3,0,0,1-1.58-.21,5.82,5.82,0,0,0-3.89-.06,14.42,14.42,0,0,1-2.42.36c-.87.09-1.78.13-2.67.2l.82.6c-.47.08-.92.2-1.41.25a30,30,0,0,0-4.53.57,13.22,13.22,0,0,1-6.15-.5,11.42,11.42,0,0,0-4.43-.75c-1.84.09-3.68.18-5.53.24s-3.92.37-5.78-.17a2.7,2.7,0,0,0-1.11.29c-.71.62-1,.8-1.55.71a3.81,3.81,0,0,1-.88-.27,3,3,0,0,0-2.85,0c-1.92-.5-2.81,1.26-4.71.39-1.3-.6-3.27-.26-4.37-.62-2.61-.87-5.71-.58-8.58-.76-1.22-.07-2.71-.59-4.18.09a33.45,33.45,0,0,1-3.72-.53,5.36,5.36,0,0,1-2.65-.8,13,13,0,0,0-3.1,0,17.65,17.65,0,0,1-3.07.3,4.57,4.57,0,0,0-2.7.34,6.85,6.85,0,0,1-3.94-.36c-1-.39-2.25-1.21-3.92-.23a4.15,4.15,0,0,1-.77-.12,45.62,45.62,0,0,0-5.71-.4l-.18-.67c-.39,0-.78.08-1.16.07-.73,0-1.44-.14-2.17-.14-.89,0-2.82-.82-2.22.46.18.38-2.77.89-3.72.64-.14,0,.23-.42.4-.63s1-.76.74-.94c-.59-.39-1.36-.11-2.21.1-1,.24-2.64.13-3.51.41a3.24,3.24,0,0,1-2.52.1,15,15,0,0,0-1.72.39c-.45.08-1,.09-1.47.13a3.69,3.69,0,0,0,.49-.67c.05-.14-.08-.29-.13-.44a6.39,6.39,0,0,0-1.14.11C249.25,25,249,26,247,25.75c-1.2-.14-2.84-.25-3.55-1s-2.85-.42-4.44-.34a1.91,1.91,0,0,0-.65.27c.32.05.63.13,1,.15.62,0,1.65-.07.83.4a8.16,8.16,0,0,1-6.11.14c-.89-.36-1.05-.24-1.1.15-.09.71-1.16.73-2.09.36a8.27,8.27,0,0,0-5.38-.28,6.91,6.91,0,0,1-5.14-.24c-1.59-.5-2.66-.47-2.92.25s-.74.82-2.34.51-2.08-.21-4.58.32c-.92.19-2.09.17-3.14.27l-4.16.38-1.16.08c-.06-.23-.12-.45.62-1,.26-.17-.3,0-.86.09a5.67,5.67,0,0,0,1.1.15c.73-.08,1.41-.23,2.12-.35a7.53,7.53,0,0,0-2.36.11c-1.17.31-1.54.33-2.28.57.25-.52.57-.86.76-1.2.06-.11-.25-.25-.39-.38a6,6,0,0,0-1.26.25c0,.38.22.77.89,1.33.16,0,0,.18-.28.34s-.71.64-1.37.13a4.62,4.62,0,0,1-.82-1c-1.23.32-2.51.62-3.66,1-.32.11.32.66-1,.36a17.83,17.83,0,0,1-1.74-.55,2.58,2.58,0,0,0-2.47,0c-.8.39-2.92-.11-3.93.52a1.85,1.85,0,0,1-.74,0c-1.5-.83-3.57-.53-5.55-.5a3.29,3.29,0,0,1-1.52-.36c-.34-.32-.86-.59-1.18-.15-.89,1.2-3.89.55-5.56,1.14a11.85,11.85,0,0,1-5.59.17c-.61-.1-1.71.35-2.54.32s-1.87-.36-2.86-.46a5.47,5.47,0,0,0-1.49.25c-.6.14-.63.76-1.93.26-2.41-.92-5.16-.53-7.52,0a9.54,9.54,0,0,1-5.83-.22,5.66,5.66,0,0,0-4.63-.15c-3.74-.42-7.37.14-11.06.18a2.31,2.31,0,0,1-.93-.15c-.86-.79-2.75-.06-3.64-.39-1.5-.54-2.61.79-3.93.05a2.27,2.27,0,0,1-3.16-.26,6.74,6.74,0,0,1-2.39.12,60.92,60.92,0,0,0-7.11.24c-.42,0-.74.37-1.07.57a4.29,4.29,0,0,0-.45.38c-.22-.11-.64-.22-.63-.32C104,27,101.37,27,99.92,27c-2.83,0-5.6-.54-8.5-.15-1.8.24-1.47-.41-1.68-.91,0,0,0,0,0,.1a6.52,6.52,0,0,0,.8-.17c.07,0-.16-.18-.25-.27a1.47,1.47,0,0,0-.57.34c-3.37.11-6.71.7-10.21.16a26.46,26.46,0,0,0-3.13.33,10.35,10.35,0,0,1-1.91.26c-2.93-.71-4.88,0-7.06.63-.54.16-2.32-.23-2.59-.08-1.45.77-3.31-.45-4.66.22-.21.1-3.9,0-4.61-.07a34.76,34.76,0,0,0-6.61,0,5.8,5.8,0,0,1-3.73-.59c-.41-.28,0-.81-1.46-.25-2.23.87-5,.42-7.53.26-1.87-.11-3.57-.48-5.61,0-1.28.29-4.69-.39-6.13-.93-1.83-.69-4-1.2-5.41-2.12-.8-.51-.44-.74.19-1.13.41-.24-.41-1.08,1.51-.41.54-.31,1.41-.6,1.56-.95.37-.84-1.06-1.48-2.22-2.09-.64-.33-1.83-.74-1.62.23a3.18,3.18,0,0,1-1,.1,19.41,19.41,0,0,1-2.25-.58,45.82,45.82,0,0,0-5.92-1.3c-1.8-.32-4.09-.89-2.3-2,.12-.08-.48-.29-.54-.45s-.24-.68,0-.74c.92-.2,1.73-.11,1.86.42a5.27,5.27,0,0,0,1,.14c-.31-1,1.52-.81,2.84-.85a12.57,12.57,0,0,0,3.27-.63c3.11-.88,5.11-2.37,9.22-2.73.58-.05.92-.57,1.34-.89.16-.12.19-.38.29-.38a18.94,18.94,0,0,0,6-1.23c1.63-.49,3.59-.8,5.44-1.16a29.46,29.46,0,0,1,3.85-.6c1.15-.07,2.49.45,3.5-.19,5.06.42,10.3.45,15.24,1.13a12.82,12.82,0,0,0,2.88.29c1.41-.64,3.15.06,4.53-.31A8,8,0,0,1,70.05,7c2.07.67,3.53-.12,5.22-.27a29.32,29.32,0,0,0,5.15-.53c1.26-.34,3.68,0,5.55.08,4.27.25,8.53.54,12.78.84.44,0,1.17.26,1.21.24,1.5-.83,3.13-.19,4.77-.16a61.66,61.66,0,0,1,7.43.14,60.53,60.53,0,0,0,6.13.39,75.76,75.76,0,0,1,12.67,1,20.42,20.42,0,0,0,3.82-.14l7.75-.34c2,.93,5.08-.35,7.08.58a2.09,2.09,0,0,0,.54,0c6-.11,11.94-.24,17.91-.33,2.47,0,4.85-.46,7.48.05a15.52,15.52,0,0,0,4.56-.41,9.63,9.63,0,0,1,5.42.16,4.32,4.32,0,0,0,1.37.24c2.39-1,4.32-.05,6.57.08,2.81.16,6.2.18,8.8-.74,1.32-.47,2.66-.68,3.56.22a4.48,4.48,0,0,0,.77.45c.1-.21.3-.42.27-.62-.07-.49-.49-.74,1.49-.44,4.14.63,8.55.2,12.83,0a4.11,4.11,0,0,1,2.84.58c1.09.69.57.63-.75.7a13.73,13.73,0,0,0-1.43.23,5,5,0,0,0,1.08.43c2.44.46,3.69.16,4.14-1.12.16-.44.26-.71,1.45-.68,1.4,0,2.73-.31,4.28,0a17.47,17.47,0,0,0,3.11-.37,7.55,7.55,0,0,1,2,.09,9.89,9.89,0,0,0,5,0,5.83,5.83,0,0,1,1.64-.08c2.19.21,4.44.75,6.28-.29A11.31,11.31,0,0,0,257.32,7a3.64,3.64,0,0,1,1.58.34,1.66,1.66,0,0,1,.67,1c.15.62.75.77,2.1.46.75-.17,1.64-.25,2.3-.46a4.17,4.17,0,0,1,3.44,0,1.81,1.81,0,0,0,2.27-.26c.24-.32,1.3-.54,2-.81,1.06-.4.92,0,1.15.26a3,3,0,0,0,.59.34c2-1.12,4.51-.31,6.82-.28s4.56-.5,6.77.09c1.82-1,3.36-.41,5.07.1a17.62,17.62,0,0,0,5.53-.07,6.45,6.45,0,0,1,4.15-.22,40.8,40.8,0,0,0,5.13.28c.83.06,2.25.37,2.34.31,1.37-.91,3.25.38,4.67-.21,1-.41,2.22-.7,3.14-1.12a3.39,3.39,0,0,1,2.73-.2,6.64,6.64,0,0,0,2.5,0c.89-.55,1.64-.12,2.49-.13a51.08,51.08,0,0,1,5.5.58c1.66.13,3.58-.4,5.43-.55,1.3-.11,3-.37,3.28.58a7.63,7.63,0,0,0,1.48.09c1.57,0,3.11-.3,4.7.22.85.28,1.88-.79,3.55-.17a11,11,0,0,0,3.43-.37c1.61-.37,2.92-.94,4.76-.11a15.58,15.58,0,0,0,2.59.06,4.46,4.46,0,0,1,1.63.32,11.35,11.35,0,0,0,7,1.53c2.63-.15,5.42,0,7.79-.75a8.75,8.75,0,0,1,3.11,0,2.68,2.68,0,0,0,1.63-.1A35.71,35.71,0,0,1,391.78,7c2.61.13,5.82,1,8.42-.21a3.1,3.1,0,0,1,1.08,0c1.43.21,3.44.8,4.14.6a7,7,0,0,1,4.33-.17,9.1,9.1,0,0,0,2.54-.12c.81-.1,1.51-.36,2.32-.44a20,20,0,0,1,7.6.54C424.26,6,426.7,6.8,429,7a17.9,17.9,0,0,0,1.92.26,24.94,24.94,0,0,1,3.71-.41,8.18,8.18,0,0,0,3.9-.17,10.88,10.88,0,0,1,2.69.2,12.39,12.39,0,0,1,1.27.27c1.61-1.34,4.74-.21,6.89-.68a5.4,5.4,0,0,0,.89-.2c.53-.26.93-.47,1.34,0a10.82,10.82,0,0,0,1,.92c1.28-.26,2.25.81,3.9.09a9.87,9.87,0,0,1,3.66.06,19.35,19.35,0,0,0,9-.5,4.62,4.62,0,0,1,3.15-.17c1.91.58,4,1.2,6.44.29a6.53,6.53,0,0,1,2,.06,59.74,59.74,0,0,0,8.52.89c1.53,0,3.25.75,5.31.73.47,0,1.09.28,1.4.22,5.15-1,11.74-.55,15.82-2.6A3.13,3.13,0,0,1,512.86,6c2.26.8,3.51-.32,5.26-.43.31-1.43,3.79-.1,4.89-.9a6,6,0,0,1,1.56.22,10.91,10.91,0,0,0,5.46.66,10.81,10.81,0,0,1,3.09.1c2,.49,3.44-.79,5.71-.11a21.93,21.93,0,0,0,5.63.22c1.53,0,3.42.2,4.55-.51a7.85,7.85,0,0,0,4-.23c2-.5,4.39.26,6.68.23.42,1,2.27.61,3.75.62.85,0,1.69.12,2.53.19,4.49.38,9.06.39,13.61.41,1.62,0,3.24-.49,4.87-.49a35.11,35.11,0,0,1,4.39.55,2.86,2.86,0,0,0,1.06,0c1.71-1.13,3.37,0,5,0a17.82,17.82,0,0,0,1.86.06c1.68-1.64,3.73.13,5.51-.12,1.6.85,3.76.72,6,.62s4.64-.45,6.85.14c2.73-.55,5.82-.6,8.61-1a16.6,16.6,0,0,1,4.84-.57c1.8.15,3.84,0,5.7.28.89.13,1.77.57,2.43-.1,2.62,0,5-.42,7.83.35,1.88.51,5.11.23,7.73.3,1.05,0,2.12.13,3.15.08,4.44-.22,8.59.53,13,.63a55.32,55.32,0,0,0,6.88-.31c2.48-.23,5.22-.64,8,0a11.58,11.58,0,0,0,3.5-.35c2.76-.56,3.61-.79,6.38-.29,1.91.35,4.13-.41,5.66.43,0,0,1.05-.3,1.67-.42q3.06-.56,6.17-1.07a3.91,3.91,0,0,1,1.18,0,28.42,28.42,0,0,1,3.26.66,3.35,3.35,0,0,0,2.7-.23c2-.8,2.07-.76,4.65.12a9.75,9.75,0,0,0,2.39.37c1.23.06,2.49,0,3.74,0,0,.71,2,.51,2.43.84.68.55.84.88,2.57.4a16.2,16.2,0,0,1,4-.33,20.32,20.32,0,0,1,2.44.51c1.5-.76,4.09-.08,5.54-.7a9.6,9.6,0,0,1,4.56-.42c2.14.36,3.23.2,4.42-.49a4.46,4.46,0,0,1,1.8-.17,71.61,71.61,0,0,0,7.17.5c2.34,0,4.39.79,7.09.6,1.09-.08,1.43,1.12,3.65.71,1.7-.32,2.5.45,3.75.69,3.13.62,3.84.5,5.95-.88a5,5,0,0,1,.66-.23c.16.13.47.25.47.37,0,.63.43,1,2.26.82a16.86,16.86,0,0,1,5.76.17,7.17,7.17,0,0,0,1.09,0c1.93,0,3.38-.87,5.79-.31,1.51.35,3.85.07,5.65.28a50.07,50.07,0,0,0,9.08,0c1.88-.11,2.22.22,2.26.84,0,.1.55.2.85.3,1.12-.89,2.42,0,3.63-.06s2.58-.13,3.87-.16a5.06,5.06,0,0,1,1.52.09c2.58,1,5.25.5,8.07.21a38.16,38.16,0,0,1,5.33.07c.06,0,0,.48,0,.73a3.91,3.91,0,0,0,0,.48l1.66-.07a6.78,6.78,0,0,0,1,.39c2.09-.56,3.54-.52,3.78.64.11.53.81.54,1.86.5a26.69,26.69,0,0,1,4.7.14c1.47.18,3.55-.39,5.34-.67.5-.07.52-.53,1.55-.23s1.73,1,3.13.4,2.39.34,3.74,0c1-.24,2.52,0,3.45-.5a6.73,6.73,0,0,1,2-.21c2.43,0,4.89-.55,7.29.05,2-.9,4.86-.41,7.24-.7,1.27-.15,2.14,0,2.14.6l1.15-.12c2.71-.27,5.09-1,8-1,1.54,0,3.7-.63,4.3.57,2.24.1,4.53.35,6.72.26a29.5,29.5,0,0,1,7.95.4,20.65,20.65,0,0,0,3.16,0c1.63-.05,3.28-.24,4.53.42a3.55,3.55,0,0,0,1.16,0c1.37-.13,2.73-.28,4.09-.43,1.07-.12,2.9.15,2.38-.77.7,0,1.39.09,2.1.12a10.38,10.38,0,0,1,2.07,0c1.13.44,1.35,0,2-.19a3.47,3.47,0,0,1,1.64.26c.38.53.58.57,1.56.14s1.92.05,2.73.3c.13,0,.15.26,0,.3-.49.15-1.06.27-1.6.4.66.07,1.33.13,2,.23a3.34,3.34,0,0,1,.86.28c.5.26.95.55,1.42.82a1.43,1.43,0,0,1,.35-.17c1.8-.45,0-.79-.21-1.18-.4-.94.69-1.42,3.14-1.17,1,.11,1.24-.66,2.5-.13.58.24,2.4,0,3.65,0,1,0,2,.21,3,.19a2.81,2.81,0,0,0,1.41-.49c1-.87,2,.31,3.17,0,.46-.11.79.46.25.85s-1.16.88-1.27,1.35c-.17.73-.81.44-1.49.18a2.49,2.49,0,0,1-.88-.51c-.8-.81-1.12,0-1.62.08-1.49.31.94,1.23-1.46,1-.14-.5-.11-.58-.19-.64-.25-.22-.54-.43-.81-.65a3.48,3.48,0,0,0-.24.8,1,1,0,0,0,.18.64c.09.12.42.21.64.31.16-.08.45-.16.45-.24s-.09-.43,0-.22c1.64.84,1.77.86,2.28.34.26-.28.09-.57,1.09-.28,1.29.37,1.6,1.23,3.69,1.2a11,11,0,0,0-1,1.71c.07.19.24,0,.29-.13s-.06-.28-.1-.42c-.34.12-.89.22-1,.36s.26.36.77.19c1.73-.92,3.39-.16,5-.62,0,0,.85.28.91.46.21.67.13,1.41,2.76,1.06a3.86,3.86,0,0,1,.93.16,4.68,4.68,0,0,1-.72.26c-1.12.25-3.06-.28-6.25,1.37-1.53-.05.9.47,2.59.08.21-.05.38-.29.27-.38a13.54,13.54,0,0,0-1.67-1.14,3.81,3.81,0,0,0-1,.25c-.33.24-.31.55-.67.78-.7.43-.84.14-1.2-.15a4,4,0,0,0-1.46-.36,7.93,7.93,0,0,1-3.34.58c0,.15-.14.4,0,.43,1.21.24,2.47.44,6.51-.09a19.82,19.82,0,0,1,4.41-.82c.5,0,1,.05,1.52.07-.21.17-.46.33-.64.51-.93.9-3.4,1-5.12,1.33-2,.39-.85.82-1,1.24a4,4,0,0,0,1.34.16c1.1-.24.86-.87,2.38-1.16,1-.2,2.57.39,3.14-.4s2.34-.55,3.72-.64c.58.94,3.23-.12,4,.67.15-.22.58-.59.41-.64-2.36-.76,0-.87.92-1.17.25.31-.21.68,1.09.88,2.37.37,2.26.42,1.18,1.31-.26.21-.31.67-.05.73,1.19.27,3.45-.28,3.6.8a4.66,4.66,0,0,0,.71-.16c-.45-.68.68-.66,1.82-.78,1.46-.16,1.65-.51.65-.87-.81-.3-1.72-.55-2.58-.82-2.08,1.09-1.66,0-1.68-.35s.5-.66.79-1c.73,0,1.47-.07,3.37-.05.68,0,.26-.1-.12-.08a2.36,2.36,0,0,0-.93.23,3.94,3.94,0,0,0,.78.62C986.74,18.5,987.17,18.29,986.58,18ZM163.51,13.51l-.59-.24c-.14.08-.29.15-.44.22.24.06.47.13.72.17.05,0,.2-.09-1.27-.35l.5,0A1.61,1.61,0,0,0,162,13a4.14,4.14,0,0,0-.65.1A9.86,9.86,0,0,0,163.51,13.51Zm740.81,2.56c.41.14.82.27,4.41,1.14l-3.19-.74c-.28.33-.83.66-.79,1,.07.59,1.33.35,2.1.3.51,0,.94-.26-1.31-1.28a7.8,7.8,0,0,0-1.72-.37l.5,0a1.61,1.61,0,0,0-.43-.32,4.14,4.14,0,0,0-.65.1A3,3,0,0,0,904.32,16.07Zm-667.2-5.68.58-.24-.55-.18a2.72,2.72,0,0,0-.41.3s.23.08.85-.52l.06.2a5.33,5.33,0,0,0,.8-.17c.06,0-.16-.17-.26-.26C238,9.6,237.79,9.67,237.12,10.39ZM918.41,23l-.59-.24-.44.22c.24.06.46.13.72.17,0,0,.2-.1-1.27-.35l.49,0a1.41,1.41,0,0,0-.42-.32,3.1,3.1,0,0,0-.65.1A9.65,9.65,0,0,0,918.41,23Zm-34.14-2.37c.41.13.82.27,6.08.4a19.48,19.48,0,0,0-2.09-.11,9.13,9.13,0,0,0-2.61.36c-.62.32.74,1.23,1.88,1.42a3.08,3.08,0,0,0,1,0c.59-.48,1.09-1-3.06-1.66a8,8,0,0,0-1.72-.38l.49,0a1.41,1.41,0,0,0-.42-.32,3.1,3.1,0,0,0-.65.1A3,3,0,0,0,884.27,20.58Zm62.39-5.23.06.2a5.28,5.28,0,0,0,.8-.18c.06,0-.17-.17-.26-.26-.2.08-.4.16-.92,1.54a3.29,3.29,0,0,0,.47-.69c0-.13-.06-.27-.09-.41-.35.12-.9.22-1,.36S946,16.27,946.66,15.35ZM207.88,23.57l.92-.34A3.93,3.93,0,0,0,208,23a11.58,11.58,0,0,0-1.31.23,19.46,19.46,0,0,0,3.28.39l-.59-.24-.44.22a6.92,6.92,0,0,0,.72.17S209.82,23.71,207.88,23.57ZM220.93,14l.92-.34a3,3,0,0,0-.82-.19,10.84,10.84,0,0,0-1.31.23,7.49,7.49,0,0,0,2.19.17l2.54.8-.8-.43c-.15.08-.48.18-.43.23A6.38,6.38,0,0,0,224,15c.13-.12.25-.24-.88-.82A5.74,5.74,0,0,0,220.93,14Zm-14.16,4.34a3.48,3.48,0,0,0,.48-.69c0-.13-.06-.27-.1-.41-.34.12-.89.22-1,.36s.26.36.46-.64a9.6,9.6,0,0,0,1.54.21,4,4,0,0,0,1-.29l-1.62-.53C207.35,16.45,207.13,16.59,206.77,18.29Zm22,2.12,1.52-.4a8.35,8.35,0,0,0-1.38-.16c-.64,0-1.24.17-1.86.26a14.13,14.13,0,0,0,3.3.12l.46.35a1.6,1.6,0,0,0,.62-.58,2.4,2.4,0,0,0,.56.14c.85-.23,1.71-.47,2.48-.74.17-.07.12-.3,0-.42a1.49,1.49,0,0,0-.77-.25c-1.34,0-2.67.72-2.24,1.45C231.1,20.19,230.74,20.21,228.79,20.41Zm.19-2.87.59-.24-.55-.18a5.09,5.09,0,0,0-.42.29s.24.08,1.66-.35A13.12,13.12,0,0,0,231.7,17a4.21,4.21,0,0,0,.84-.34,6.13,6.13,0,0,0-1.67-.43,4.07,4.07,0,0,0-1.41.66C229.81,17,230.16,17,229,17.54ZM933.12,24a3.45,3.45,0,0,0,.06-.61c-.1-.55-1.08-.44-1.91-.38a11.87,11.87,0,0,0-1.35.22c.53.07,1.11.11,1.6.22s.8.27,5.24.45a6.66,6.66,0,0,0-1.26-.17c-.73.06-1.43.2-2.14.3a6.27,6.27,0,0,0,1.73.52C935.52,24.59,936.05,24.22,933.12,24ZM255.51,18l.06.2a5.33,5.33,0,0,0,.8-.17c.06,0-.17-.17-.26-.26-.2.08-.4.15-2.36,2,.65-.38,1.34-.74,1.91-1.13.15-.11,0-.29-.09-.44-.64.24-1.31.47-1.92.72-.38.15-.69.34-1,.51C252.87,19.51,253.12,19.58,255.51,18ZM923.3,20c0,.07,0,.14.05.2a5.07,5.07,0,0,0,.8-.17c.07,0-.16-.17-.25-.26a25.39,25.39,0,0,0-2.65,1.4c1.88,0,2.57-.19,2.14-.75a.93.93,0,0,0-.56-.18c-1,0-2.81.64-2.43.82S921.31,21.17,923.3,20ZM213.6,8.8l.85.37c.17-.11.51-.23.47-.33s-.37-.35-.57-.53c-.22.15-.44.29-.58,2.67.19-.1.55-.19.54-.28a2.58,2.58,0,0,0-.39-1.28,4.38,4.38,0,0,0-1.56-.12c-.26,0-.6.39-.45.51C212.42,10.22,213.14,10.59,213.6,8.8ZM907,23.32a5.59,5.59,0,0,0,1,.27c.48,0,.94-.11,1.4-.17-.09-.1-.2-.28-.26-.27-.6,0-1.18.09-1.74,1.23a1,1,0,0,0,.2-.32,1.24,1.24,0,0,0-.11-.44,5.71,5.71,0,0,1-2.92-.31c-.35.18-.73.34-1,.53a.27.27,0,0,0-.07.3C904.77,24.23,906.07,24.3,907,23.32ZM251.85,15.16l.58-.24-.54-.17a2.37,2.37,0,0,0-.42.29s.24.08.56-.91c.28.18.51.51.91.55,1.22.11,2.86-.63,2.43-1.13-.62-.73-1.09.4-2.22.06C251.5,13.1,252.45,13.87,251.85,15.16Zm700,2.5c.48-.21,1.08-.44,1.58-.7.11-.05-.2-.33-.24-.33a23.37,23.37,0,0,0-2.46.23c-.2,0-.17.38-.06.56s.55.12,2.51-1.14a6.39,6.39,0,0,0,1.08.28c1.55,0,2.13-.45,2.51-.95.08-.1-.14-.29-.38-.37a2.75,2.75,0,0,0-1-.07A13.64,13.64,0,0,0,951.86,17.66ZM276.07,23.87a2.67,2.67,0,0,0,.64.17c.92-.12,1.83-.25,2.71-.41.08,0-.05-.26-.16-.39a.79.79,0,0,0-.38-.13,11.37,11.37,0,0,0-2.69,1,13.43,13.43,0,0,1-2.78-1.19l.84.37c.17-.11.51-.23.47-.33s-.36-.35-.57-.53a.82.82,0,0,0-.41.88l-1.83-.34c0,.25-.14.53,0,.76a1.69,1.69,0,0,0,1,.7C274.17,24.67,275.57,24.9,276.07,23.87ZM248.33,12.19c.82-.1,2.18.13,2.09-.54.77-.1,1.63.06,2.18-.43,1.75-1.52,1.84-1.51,4.32-.36.21.1.26.35.41.36.85,0,1.72,0,2.58,0-.13-.14-.28-.38-.41-.38-3.57.06.56-.71-.65-1.1l.06.2a5.33,5.33,0,0,0,.8-.17c.06,0-.16-.17-.26-.26a.88.88,0,0,0-.54.43c-1.33-.61-4.43.21-5-1l-.76.11c-1.35.14-2.74.25-4,.45a9.41,9.41,0,0,0-2,.62c-.1,0,.22.32.51.42s1.36.54,1.35,0c0-1.46,1.79.2,2.24-.25l-.74,1.39c-.82.1-2.17-.13-6.66,1.65,2-.09,3.56,0,4.29-.71a2.43,2.43,0,0,0,.28-.4,7.54,7.54,0,0,0-1.09.06c-1.48.3-2.75,1-4.69.33a2.39,2.39,0,0,0-.7.31c-.07.11.18.34.38.36C242.91,13.31,243.63,13.29,248.33,12.19Zm-45.61,1.06a1.76,1.76,0,0,0-.59-.32,2.94,2.94,0,0,0-1,0c-.65.25-1.2.54-1.78.82l-.83.42c.79.12,1.57.26,2.38.35a2.53,2.53,0,0,0,1-.1c.36-.38.57-.78-3.94-.45l.49,0a1.43,1.43,0,0,0-.42-.33,4.31,4.31,0,0,0-.65.11C197.55,13.82,197.75,13.9,202.72,13.25Zm-4.91-3.84c-1.25.2-3.23,0-2.54.63.53.51,2.32.8,3.54,1.19.24-.48.67-1,.63-1.42,0-.16-1.21-.3,2.24,1.74a13.73,13.73,0,0,0-1.83-.35,1.75,1.75,0,0,0-.94.24c-.07.37.14.74,1.4.61C200.69,12,201,11.82,197.81,9.41Zm694.53,7.9c0,.06,0,.13,0,.2a6.52,6.52,0,0,0,.8-.17c.07,0-.16-.18-.25-.27-.2.08-.4.16-4,2.76a30.1,30.1,0,0,0,3.65-1.25c.4-.21.16-.95-.27-1a34.66,34.66,0,0,0-4-.3s-.28.28-.2.3c2,.59.84,1.24.29,1.89-.08.1.21.26.38.38S889.1,19.85,892.34,17.31ZM210.48,13a2.64,2.64,0,0,0-.52,0c-1.65.56,1.71,1.09.06,1.65,1.67.58,1.87-.42,3-.47a20.06,20.06,0,0,1,3.17-.3l-.59-.24-.44.22c.24.06.47.13.72.17.05,0,.2-.09-.77-.36-.72-.48-1.78-.88-1.56-1.52.14-.42-.28-.73-1.53-.6-1,.09-2,.22-3,.34.44.29.9.57,1.32.86C210.5,12.81,210.46,12.9,210.48,13ZM979.1,23.57c.12.16.19.74.63.79,1.78.2,3.67.24,5.53.32a3,3,0,0,0,.8-.24,3.73,3.73,0,0,0-.86-.19c-1.26.08-1.58-.18-1.58-.61,0-.61-1.1-.87-2.28-1S979,22.85,979.1,23.57Zm-752.25.56c.47-.22,1-.35,1-.51.14-.45-.9-1.09,1.41-1.13.14,0,.37-.66.21-1a4.51,4.51,0,0,0-1.62-.22,3.77,3.77,0,0,0-1,.87,1.9,1.9,0,0,0-2,0c-.39.25-1.92,0-1.67.63s1.32.35,2.12.34c1.4,0,1.62.13.67.56A8.44,8.44,0,0,0,226.85,24.13Zm31.81-8.77c1.65-.11,4-1,4.12-1.58.05-.19-.34-.49-.74-.58a12.54,12.54,0,0,0-1.9-.1c0,.64-1.34.86-2.18,1.25C257.64,14.5,258.41,15,258.66,15.36Zm669.55,3.31,1.17-.23a7.55,7.55,0,0,0-1-.26q-1.67-.27-3.36-.48a11.34,11.34,0,0,0-1.18,0c.3,1.2-2.18.61-3.36.86-.3.07-.56.16-.83.24a3.06,3.06,0,0,0,.75.28,9.77,9.77,0,0,0,2.26.17A10.19,10.19,0,0,1,928.21,18.67Zm-655.38-8c-.15,0-1.08.12-1.25.31-.42.46,1.85.82.47,1.38a6.33,6.33,0,0,0,.95.1c1-.47,2-1,2.94-1.47.06,0-.53-.35-.92-.4A19.72,19.72,0,0,0,272.83,10.65Zm663.77,3,.23-.34c-1.31-.07-.41-1.07-2.47-.9-1.66.13-2.73.4-2.7,1.11,0,.26.44.52.67.78a4.57,4.57,0,0,0,1-.47C934.16,13,935.37,13.91,936.6,13.7Zm4.82,3a6.34,6.34,0,0,0,.34,1.1,1.4,1.4,0,0,0,.72.14c.75-.16,1.44-.36,2.15-.55a4.71,4.71,0,0,0-1.07-.58c-1.44-.44-1.19-.61.49-.69.19,0,.37-.37.38-.56s-.41-.19-.64-.29c-.57.55-1.44.36-2.31.15a2.14,2.14,0,0,0-.22.61A2.26,2.26,0,0,0,941.42,16.67Zm-133.2-5.81a13.48,13.48,0,0,0,2.33-.18c1-.32,1.82-.76,1.24-1.35a5,5,0,0,0-.48-.37c-.6.25-1.14.52-1.79.74s-1.29.23-1.76.42a3.39,3.39,0,0,0-.9.66ZM933.77,18.4a18.09,18.09,0,0,0,2.75.73,8.59,8.59,0,0,0,2.11-.38,10.38,10.38,0,0,0-2-.92,8.12,8.12,0,0,0-2.1.08C934.32,17.94,934.19,18.13,933.77,18.4ZM936,19.64c-.37,0-.75,0-1.1.05s-1,.16-1.44.24a7.13,7.13,0,0,1,1.65.26c.35.17.34.48.38.74s-.16.32-.25.49a7,7,0,0,0,1,0c.85-.58,1.61-1.17,2.39-1.76-.51,0-1-.07-1.55-.07C936.77,19.59,936.4,19.62,936,19.64Zm6.09,1.53c.12-.06.36-.14.33-.18-.48-.72,1.37-.68,2-1,.34-.18.76-.53.56-.64a4.6,4.6,0,0,0-1.76-.42,1.82,1.82,0,0,0-1.06.55,5,5,0,0,0-.73,1.42C941.45,21,941.9,21.07,942.12,21.17ZM194,15.65c-.31.1-1.13.23-1.28.44-.49.67,1.11.17,1.53.39a3.55,3.55,0,0,0,.81.26,2.57,2.57,0,0,1,2.37,0c.1-.34.39-.69.23-1a4.54,4.54,0,0,0-1.66-.26C195.51,15.43,195.6,16,194,15.65ZM946.1,19.21a8.27,8.27,0,0,0,1.38.24c.49-.12,1.07-.61,1.33-.05.45,1,2.76.5,2.86.42,1-.82-1.43-.12-1.6-.53a1,1,0,0,0-.56-.58,5.14,5.14,0,0,0-1.6-.4A9,9,0,0,0,946.1,19.21ZM276.18,13.67a14.39,14.39,0,0,0,2.13-.12c.32-.09.5-.52.44-.53a24.89,24.89,0,0,0-3.31-.47c-.23,0-.67.57-1,.88Zm-58,8.14c.82.22,1.62.45,2.48.64a4,4,0,0,0,.95-.11c-.31-.2-.77-.38-.9-.6a6.08,6.08,0,0,1-.35-1.07c0-.13-.29-.24-.45-.36-.21.14-.46.27-.63.41C219,21,218.68,21.34,218.21,21.81Zm61.66-2.39c.17-.16.61-.42.47-.49a10,10,0,0,0-2.17-.8,4.59,4.59,0,0,0-1.58.43c-.23.1-.29.44-.24.44C277.44,19.15,278.56,19.27,279.87,19.42Zm614.2,4.1c-.75-.19-1.46-.41-2.27-.54a4.08,4.08,0,0,0-1.1.3c1.48.41,1.27.62-.47.67-.1,0-.17.21-.25.32a20.34,20.34,0,0,0,2.61,0A4.81,4.81,0,0,0,894.07,23.52Zm-655.6-2.74c-.22-.17-.28-.28-.38-.28a2.11,2.11,0,0,0-.73,0,5.57,5.57,0,0,0-1.32.67,1.71,1.71,0,0,0-.42.92,3.34,3.34,0,0,0,.89.08,4.22,4.22,0,0,0,.94-.6C237.84,21.31,238.19,21,238.47,20.78Zm8.23-4.45-1.48.35a10.35,10.35,0,0,0,1.4.83,7.21,7.21,0,0,0,1.36-.33,5.28,5.28,0,0,0,1-.5c.15-.09.18-.21.27-.32-.32,0-.64-.08-1-.09S247.59,16.3,246.7,16.33Zm653.26-1-2.44.4a7.53,7.53,0,0,0,2.08.54,9,9,0,0,0,2.29-.74Zm18.71,4.16c0-.07-.06-.18-.16-.19a2.26,2.26,0,0,0-.77,0,7.58,7.58,0,0,0-1.69.88c-.15.12.36.42.73.58a3,3,0,0,0,1.05-.05A8.17,8.17,0,0,0,918.67,19.45Zm-774-5.37a6.05,6.05,0,0,0,1.07-.06,3.35,3.35,0,0,0,1.06-.36c.13-.08,0-.34-.23-.38a4.81,4.81,0,0,0-1.45-.11,17.25,17.25,0,0,0-2.12.54.55.55,0,0,0-.35.31.76.76,0,0,0,.4.13C143.61,14.14,144.15,14.1,144.69,14.08Zm22.87,0c.46-.37,1-.76,1.43-1.17.06,0-.58-.27-.6-.27-.87.29-1.73.59-2.52.91-.11.05.09.29.31.37A9.09,9.09,0,0,0,167.56,14ZM264.78,21c1.67.06,1.68-.41,1.34-1a2.43,2.43,0,0,0-.44-.36,5.23,5.23,0,0,0-.71.18,11.74,11.74,0,0,0-1.33.68c-.18.13-.12.31-.17.47Zm-12.54-3.79,1.64-.54a22.18,22.18,0,0,0-2.24-.5,4,4,0,0,0-1,.35ZM235.08,18.4,236.22,17a7.16,7.16,0,0,0-1.4-.16c-1.35.13-.66.57-.61.88C234.23,17.91,234.58,18.05,235.08,18.4Zm755.7.77c-.37,0-.89-.08-1.4-.08a4.53,4.53,0,0,0-1,.11c-.15,0-.33.11-.32.16a2.33,2.33,0,0,0,.25.87,2.32,2.32,0,0,0,.7.15C989.49,20.09,989.91,19.79,990.78,19.17Zm-83.41-3.05,2.3-1a9,9,0,0,0-1.44-.15c-.78,0-2-.08-1.8.5C906.49,15.68,906.9,15.83,907.37,16.12ZM58.13,23.21A10.91,10.91,0,0,0,56.46,23c-.78.05-2-.13-2.07.41,0,.17.41.36.64.54Zm866.72.09c-.75,0-1.13,0-1.46.07s-.89.19-1.34.28l1.45.16c.81.1,1.6.2,2.42.27.19,0,.66-.15.64-.2a.9.9,0,0,0-.56-.55A5.15,5.15,0,0,0,924.85,23.3Zm-680.33-13,1.72-1c-.49,0-1-.08-1.49-.08-1,0-1.85.09-1.51.6A5.48,5.48,0,0,0,244.52,10.3Zm-39,15.12a17.21,17.21,0,0,0,2,.63,1.54,1.54,0,0,0,.81-.22,4.24,4.24,0,0,0,.3-1c-.46.07-1,.12-1.39.21C206.66,25.14,206.1,25.29,205.53,25.42Zm65.6-3.79a12,12,0,0,0,1.26-.49c.22-.12.17-.31.25-.46a4.13,4.13,0,0,0-1,0,8.31,8.31,0,0,0-1.44.59c-.1,0,0,.2.12.29A6.8,6.8,0,0,0,271.13,21.63Zm2-5.23-.89-.73c-.45.21-1.36.48-1.25.62a5.77,5.77,0,0,0,1.56.7Zm654.24-1.09.74.54,2.73-.75A3.92,3.92,0,0,0,930,15C929.13,15,928.31,15.18,927.41,15.31ZM248.19,19.64l2.06,1c.09-.13.3-.27.25-.39-.15-.38.27-1-1.54-.83A3.17,3.17,0,0,0,248.19,19.64Zm-14.76,4.59c.71.1,1.35.25,2,.28a8.08,8.08,0,0,0,1.42-.2l-2.79-.62Zm649.8-1.44a15.63,15.63,0,0,0-2-.24c-.28,0-.78.4-.69.44a4.78,4.78,0,0,0,1.46.38A5.29,5.29,0,0,0,883.23,22.79ZM174.32,11.46a11.71,11.71,0,0,0,1.26-.5c.22-.11.17-.3.25-.46a5.53,5.53,0,0,0-1,0,10.25,10.25,0,0,0-1.44.59c-.1.06,0,.21.12.29A4.27,4.27,0,0,0,174.32,11.46Zm6.78,2.78,2.45-.83a6.52,6.52,0,0,0-1-.1c-.93.06-2.39-.11-2.05.62C180.59,14.05,180.93,14.15,181.1,14.24Zm44.37-1c1.75-.08,2.63-.07,3.42-.18.28,0,.41-.35.44-.53a2,2,0,0,0-.88-.18C227.68,12.51,227,12.75,225.47,13.21ZM916.24,16.8a8,8,0,0,0,1.55.46,3.24,3.24,0,0,0,1.21-.5c.07-.05-.62-.38-.9-.37A12.77,12.77,0,0,0,916.24,16.8ZM247.46,14.56l1.26-.28L247,13.62c-.14.13-.46.27-.38.37A4,4,0,0,0,247.46,14.56Zm679.64,2.1,1.63.58c.12-.19.49-.5.33-.55a8.68,8.68,0,0,0-1.68-.27S927.15,16.61,927.1,16.66ZM899.59,22.9l1.69.54c.14-.19.52-.49.36-.55a8.94,8.94,0,0,0-1.66-.28C899.93,22.6,899.73,22.8,899.59,22.9ZM258.91,19.5l1.19-.44a9.51,9.51,0,0,0-1.49-.07,9.18,9.18,0,0,0-1.44.34ZM877.79,18l.7.51,1.63-.69a3.19,3.19,0,0,0-.9-.15A13.68,13.68,0,0,0,877.79,18Zm-608-5.76a3.71,3.71,0,0,0,.78-.59c.06-.09-.28-.23-.44-.34l-1.63.69Zm-65.28,1.25c1.13-.42,1.46-.51,1.68-.63a4.78,4.78,0,0,0,.58-.48,6.76,6.76,0,0,0-1.43,0C205,12.5,204.94,12.78,204.48,13.48Zm32.72,3.86L238,18c.19-.21.52-.41.54-.63s-.31-.38-.49-.57Zm-5.32-7.4c.51.06,1.05.16,1.6.18a2.41,2.41,0,0,0,.78-.24l-2-.51ZM969.79,21.33l-.91-.44-1.23.83a4.28,4.28,0,0,0,.94.08A11.57,11.57,0,0,0,969.79,21.33Zm-720.14-7.7.95.72c.13-.19.43-.4.36-.58s-.47-.51-.73-.76Zm661.78,4.18,1.72.51c.21-.13.64-.37.59-.39a8,8,0,0,0-1.45-.39A3.91,3.91,0,0,0,911.43,17.81ZM919,16a17.67,17.67,0,0,0,2.08.24,6.37,6.37,0,0,0,1-.57,3.61,3.61,0,0,0-.93-.17C920.56,15.57,920,15.74,919,16Zm29.13,7.26c.16-.21.4-.43.44-.65s-.38-.21-.59-.31l-1.26.81Zm-26-5.23c.18-.14.54-.32.44-.37a4.62,4.62,0,0,0-1.22-.5,6,6,0,0,0-.85.32Zm31,4.07-.88-.44-1.28.81a5.06,5.06,0,0,0,.94.09A9.47,9.47,0,0,0,953.19,22.08ZM241.93,8.91l-.78-.47c-.15.12-.48.26-.42.36s.43.36.67.53Zm-2.16,3.9-1-.12c-.09.13-.33.28-.24.38a3,3,0,0,0,.8.35C239.42,13.3,239.52,13.17,239.77,12.81Zm-9.85,12,.3-.4a4.13,4.13,0,0,0-.94-.1,4,4,0,0,0-.88.32ZM227.62,18l-.75-.36c-.13.19-.36.38-.36.58s.39.21.61.31Zm-3.56,7c.38-.12.81-.2.78-.26a2.55,2.55,0,0,0-.5-.57c-.22.07-.65.14-.64.2S223.91,24.77,224.06,25Zm-1.79-4.89a1.45,1.45,0,0,0,0-.65,3.43,3.43,0,0,0-.74-.14,1.53,1.53,0,0,0-.18.6A4.18,4.18,0,0,0,222.27,20.12Zm-.75,4.45c.38,0,.84-.05.84-.07a1.16,1.16,0,0,0-.16-.59,5.39,5.39,0,0,0-.69,0A2.68,2.68,0,0,0,221.52,24.57ZM206.27,10.68l.76.56c.21-.14.53-.27.59-.42s-.28-.23-.44-.35Zm-9.75,2.55.31-.41a4.78,4.78,0,0,0-.94-.09,3.81,3.81,0,0,0-.88.32Zm1.73,9.11.76.56c.21-.14.53-.27.59-.42s-.28-.23-.44-.34ZM172,12.4a1.45,1.45,0,0,0,0-.65,3.43,3.43,0,0,0-.74-.14,1.58,1.58,0,0,0-.18.6A4.18,4.18,0,0,0,172,12.4ZM170.6,26c.38-.12.81-.21.78-.26a2.35,2.35,0,0,0-.5-.57c-.22.07-.65.14-.64.2S170.45,25.79,170.6,26ZM164.17,23l-1-.12c-.1.13-.34.28-.24.38a3.1,3.1,0,0,0,.79.36ZM29.57,15.16l1.18-.31a3.5,3.5,0,0,0-.9-.18c-.46.05-.88.18-1.32.27Zm926.75,2.26.9-.3a11.72,11.72,0,0,0-1.44-.15,3,3,0,0,0-.77.24Zm.54,3.34.77.56c.2-.14.53-.27.58-.42s-.28-.23-.44-.34ZM923.77,21.9a2.79,2.79,0,0,0-.64-.32c-.48,0-.94.13-1.41.21.17.09.34.26.5.26C922.7,22,923.18,22,923.77,21.9Zm-5.19-7.4-1.17.31a3.09,3.09,0,0,0,.89.17,11,11,0,0,0,1.32-.26Zm-6.34,2c-.3-.15-.51-.32-.64-.31-.49,0-1,.13-1.41.2.16.09.34.26.49.26C911.17,16.67,911.65,16.6,912.24,16.53Zm.26,2.89a.94.94,0,0,0,.23-.4,2.69,2.69,0,0,0-.89-.1,3.9,3.9,0,0,0-.89.32Zm.48,1.79a1,1,0,0,0,.24-.41,2.79,2.79,0,0,0-.9-.09,4,4,0,0,0-.88.32Zm-6.32-.81c.61,0,1.11,0,1.59,0,.16,0,.23-.2.35-.3-.5,0-1-.08-1.49-.08C907,20,906.86,20.22,906.66,20.4Zm-14.44,1.42.76.56c.21-.13.53-.27.59-.41s-.28-.24-.44-.35Zm-4.71-9.58.78.47c.15-.12.48-.25.42-.36s-.43-.35-.66-.53Zm-3,7.07a1,1,0,0,0,.23-.41,2.72,2.72,0,0,0-.89-.09,4.08,4.08,0,0,0-.89.32Zm-3.66,2.87,1.39-.3a5.08,5.08,0,0,0-1-.24,3.15,3.15,0,0,0-.86.18Zm-11.06-6.4c.38-.12.81-.2.78-.26A2.55,2.55,0,0,0,870,15c-.22.07-.65.14-.64.2S869.61,15.54,869.76,15.78Zm-5.88,1.73,1.38-.31a7,7,0,0,0-1-.24,4.22,4.22,0,0,0-.87.18Zm-83.45,3.58-1.17.31a3.47,3.47,0,0,0,.89.17,9.35,9.35,0,0,0,1.32-.27Zm116.88-1.38-.44-.14c-.09.1-.23.21-.26.32s.25.08.38.13Zm-2.15-2.33c.11-.05.33-.12.3-.16a1.8,1.8,0,0,0-.42-.28c-.11,0-.34.12-.31.16A2.13,2.13,0,0,0,895.16,17.38Zm.18,1.29.67-.19a1.31,1.31,0,0,0-.4-.13,7.15,7.15,0,0,0-.7.18Zm-.33.82-.47-.27c-.11.06-.34.13-.31.16a2.14,2.14,0,0,0,.43.29Zm52.74-5.73-.35.17a6.66,6.66,0,0,0,.78.11c.09,0,.21-.1.32-.15Zm-68.24.18.66-.19a1.59,1.59,0,0,0-.4-.12,7.16,7.16,0,0,0-.7.17Zm-.59,2-.35.18a6.93,6.93,0,0,0,.78.1c.09,0,.22-.1.33-.15Zm-3,2.17.43.14c.1-.1.24-.21.27-.32s-.25-.08-.39-.13Zm-1.75-2.32.47.27c.11-.05.34-.12.3-.16a1.8,1.8,0,0,0-.42-.28Zm105,4a1.41,1.41,0,0,0-.4-.13,6.68,6.68,0,0,0-.71.18,1.87,1.87,0,0,0,.4.12A4.92,4.92,0,0,0,979.21,19.76Zm-116.3-5.08.67-.19c-.13,0-.31-.14-.4-.12a5.11,5.11,0,0,0-.7.17Zm-25,3.73.44.14c.09-.11.23-.21.26-.32s-.25-.08-.38-.13ZM942.22,14l-.35.18c.26,0,.51.09.78.11.09,0,.21-.1.32-.16Zm-.6-.71a1.31,1.31,0,0,0-.4-.13,5.12,5.12,0,0,0-.7.18,1.59,1.59,0,0,0,.4.12A7.16,7.16,0,0,0,941.62,13.29ZM945,25.8a1.51,1.51,0,0,0-.4-.13,6.68,6.68,0,0,0-.71.18,1.72,1.72,0,0,0,.4.12A4.92,4.92,0,0,0,945,25.8Zm-5.38-9.49c.11,0,.33-.12.3-.16a1.8,1.8,0,0,0-.42-.28c-.11.05-.34.12-.31.16A2.13,2.13,0,0,0,939.65,16.31Zm-7.44-1.18.44.14c.09-.11.23-.21.26-.32s-.25-.09-.39-.13Zm2.64,7.66.36-.17a6.83,6.83,0,0,0-.79-.11c-.09,0-.21.1-.32.16Zm-3.5-6.72.43.14c.1-.1.24-.21.27-.32s-.25-.08-.39-.13Zm-7-3.21.36-.18a6.82,6.82,0,0,0-.79-.1c-.09,0-.21.1-.32.15Zm1.21,8.54.35-.18a6.65,6.65,0,0,0-.78-.1c-.09,0-.22.1-.33.15Zm-4-8.51L922,13c.1-.11.24-.21.26-.32s-.24-.08-.38-.13Zm-635.58-3,.43.14c.1-.1.24-.21.27-.32s-.25-.08-.39-.13ZM915.37,15l.44.14c.1-.1.24-.21.26-.31s-.25-.09-.38-.14ZM283.16,9.13l-.47-.27c-.11.05-.34.12-.31.16a2.13,2.13,0,0,0,.43.28Zm-4.63.3.35-.18a6.65,6.65,0,0,0-.78-.1c-.09,0-.22.1-.33.15Zm-.21,1.27.43.14c.1-.1.24-.21.27-.31s-.25-.09-.39-.14Zm-2.23,6.2-.67.19a1.31,1.31,0,0,0,.4.13,7.16,7.16,0,0,0,.7-.17ZM918.38,24l.35-.18c-.25,0-.51-.09-.78-.11-.09,0-.21.1-.32.16ZM264.09,17.21l-.47-.27c-.11,0-.34.13-.31.16a2.67,2.67,0,0,0,.43.29ZM261,21l.44.14c.09-.11.23-.21.26-.32s-.25-.08-.39-.13C261.17,20.77,261.06,20.87,261,21Zm-6.89,3.47.43.14c.1-.1.24-.21.27-.31s-.25-.09-.39-.14C254.28,24.24,254.17,24.34,254.07,24.44Zm-9.13-2.67.35-.17a6.37,6.37,0,0,0-.78-.11c-.09,0-.21.1-.32.16Zm-1.5-2.29-.47-.27c-.11.06-.34.13-.31.17a2.13,2.13,0,0,0,.43.28Zm666.48-1.91.35-.18c-.26,0-.51-.09-.78-.11-.09,0-.21.11-.32.16Zm1.64,5.13-.44-.14c-.1.1-.24.2-.27.31s.25.09.39.13Zm-4.2-10.44.35-.18a7,7,0,0,0-.78-.11c-.1,0-.22.1-.33.16ZM219,13l.35-.18a6.66,6.66,0,0,0-.78-.11,1,1,0,0,0-.33.16Zm691,9.11.35-.18a6.66,6.66,0,0,0-.78-.11c-.09,0-.21.1-.32.16Zm-692.15-4-.35.18c.26,0,.51.09.78.11.09,0,.22-.11.33-.16Zm733.7-5.29a1.72,1.72,0,0,0-.4-.12,6.72,6.72,0,0,0-.71.17,1.41,1.41,0,0,0,.4.13A6.68,6.68,0,0,0,951.58,12.84ZM215.94,16.57c-.14,0-.31-.14-.4-.12a4.92,4.92,0,0,0-.71.17c.14,0,.31.14.4.12A4.92,4.92,0,0,0,215.94,16.57Zm-7.62-1.24c.11-.06.34-.13.31-.17a2.13,2.13,0,0,0-.43-.28c-.11,0-.34.13-.31.16A2.67,2.67,0,0,0,208.32,15.33Zm1.58,5.8c.11-.05.34-.12.31-.16a2.13,2.13,0,0,0-.43-.28c-.11,0-.33.12-.3.16A1.8,1.8,0,0,0,209.9,21.13Zm0,1.65.44.14a1,1,0,0,0,.26-.31s-.25-.09-.38-.13Zm696-1.19.47.27c.11-.06.34-.13.31-.16a2.14,2.14,0,0,0-.43-.29ZM201.21,9.76c.11,0,.34-.12.31-.16a2.67,2.67,0,0,0-.43-.29c-.11.06-.34.13-.31.17A2.13,2.13,0,0,0,201.21,9.76Zm-1.93,10,.67-.19a1.59,1.59,0,0,0-.4-.12,5.11,5.11,0,0,0-.7.17ZM190.19,16l.43.14c.1-.1.24-.21.27-.31s-.25-.09-.39-.14C190.4,15.77,190.29,15.87,190.19,16Zm-1.38-3,.35-.18c-.26,0-.52-.09-.78-.1-.09,0-.22.1-.33.15Zm1.38,8.31-.44-.14c-.1.1-.24.2-.27.31s.25.09.39.13Zm.42,4.5.48.27c.11-.05.33-.13.3-.16a2.18,2.18,0,0,0-.42-.29ZM176.92,14.52l-.67.19a1.41,1.41,0,0,0,.4.13c.25,0,.47-.11.71-.17ZM905,19.05l-.48-.27c-.11,0-.33.13-.3.16a2.54,2.54,0,0,0,.42.29ZM174.68,22.76c-.21.07-.44.13-.67.19a1.45,1.45,0,0,0,.41.13,7.16,7.16,0,0,0,.7-.17Zm726.18-3.53.44.14c.09-.1.23-.2.26-.31s-.25-.09-.38-.13ZM146.56,16.1l.44.14c.09-.1.23-.21.26-.32s-.25-.08-.38-.13ZM90,24.13l.35-.17a6.66,6.66,0,0,0-.78-.11.87.87,0,0,0-.32.16Zm811.75-3.81-.67.2a1.59,1.59,0,0,0,.4.12,7.16,7.16,0,0,0,.7-.17ZM31.35,19.11c.11-.05.33-.12.3-.16a1.8,1.8,0,0,0-.42-.28c-.11,0-.34.12-.31.16A2.13,2.13,0,0,0,31.35,19.11ZM12.53,16.4l-.35.17a7,7,0,0,0,.78.11c.1,0,.22-.1.33-.16Zm938.67-.83a1.72,1.72,0,0,0-.4-.12,7.16,7.16,0,0,0-.7.17,1.31,1.31,0,0,0,.4.13A7.15,7.15,0,0,0,951.2,15.57Zm65.42,0c-.9.12-2.91.37-4.85.69-.43.07-.58.42-.86.64a9.91,9.91,0,0,0,1.83.12c.61-.09,1.36-.78,1.49,0s2.11,1.14,3.36,1.63c.37.14,2.14-.29,1.11.43a2.75,2.75,0,0,1-2.61.35c-1.31-.36-2.54-.75-4-1.05a23.14,23.14,0,0,0-6.06-.6c-1.82.07-2.68-.77-4.1-1.13a28.38,28.38,0,0,1-2.69-1,2.62,2.62,0,0,0-1.09.15,2.07,2.07,0,0,0-.62.49c1.47,0,.45,1.12,2.45.95a1.45,1.45,0,0,1,.64.31,3.87,3.87,0,0,1-1.41.48c-1.33,0-2.15-.69-4-.33-1.6.31-1.75-.61-2.62-1-1.17-.47-2.57-.85-3.87-1.28-1.35.8-2.63,0-3.88-.07-.56,0-1.9-.28-.59-.75a5.61,5.61,0,0,0,1.24-.71c.34-.21.55-.56,1-.6.93-.09,2,.52,2.9-.11a19,19,0,0,0,6.1,1.23c1.79,0,1.76.32,2.44-.24.21-.18.31-.39.62-.53a2.91,2.91,0,0,1,1,0,.24.24,0,0,1,.17.29,7.68,7.68,0,0,1-.51.8c.67-.11,1.41-.18,2-.33a9.55,9.55,0,0,0,2-.7c.62-.36,1-.12,1.62,0a27,27,0,0,0,5.66.38c1.35-.12.55.29.18.5a4.53,4.53,0,0,0-1.18.73c-.1.14.33.39.68.53a3.61,3.61,0,0,0,1.06,0c.14,0,.22-.14.36-.15,1.47-.13.14-1.15,2.07-1.08,1.18,0,2.33.25,3.51.29a15.53,15.53,0,0,0,4-.1,9.27,9.27,0,0,1,4-.42c1.4.17,2.62.5,3.91.06a6,6,0,0,1,3.84-.14,4.73,4.73,0,0,0,1.8-.17c.93-.3,2.19-.39,2.27-.06.15.64.42,1.34,0,1.93-.3.41.31.43.5.64.46.51,1.45,1.17-1.12,1.27.1.14.08.34.31.42,1.21.41,1,1.22-.68,1.36-2.3.2-3.44.77-4.27,1.56a5.19,5.19,0,0,1-1,.51c-.22-.19-.55-.37-.66-.56-.19-.35,0-.7-1.46-.71-2.88,0-5.88-.68-8.5.38a6.17,6.17,0,0,1-1.62.08,4,4,0,0,1-.83-.2,1.92,1.92,0,0,1,.35-.18c1.93-.49,3.85-1,5.8-1.46a7.41,7.41,0,0,1,1.17,0c-.17-.2-.37-.56-.52-.56-2.76,0-2.15-.83-2.17-1.39-.08-1.66-.22-1.76-3.87-1.61Zm17,1.5c.24-.09.73-.21.69-.26-.33-.41-3.51-1-4.66-.92-1.51.09-1,.54-.82.85s.83.33,1.28.49C1031.13,16.64,1032.41,17,1033.63,17.11Zm-28.9-.43a7.26,7.26,0,0,0,1.77.69,8.76,8.76,0,0,0,1.93-.65c-.76-.21-1.49-.46-2.33-.62A6.81,6.81,0,0,0,1004.73,16.68Zm29.4,2.23c.27-.1.7-.2.71-.29a2.74,2.74,0,0,0-.2-.87c-.38,0-.77,0-1.13.07-.82.09-1.64.18-2.4.33-.22,0-.23.25-.33.39Zm-6.33-1.75a3.73,3.73,0,0,0-.93-.18,5.34,5.34,0,0,0-1.22.49,4.58,4.58,0,0,0,.78.35Zm-32.75-.3-.47-.27c-.11.05-.34.12-.31.16a2.13,2.13,0,0,0,.43.28ZM1012.89,18c.11-.06.33-.13.3-.17a1.88,1.88,0,0,0-.43-.28c-.11.05-.33.13-.3.16A2.67,2.67,0,0,0,1012.89,18Zm52.54-2.34c-1,.35-1.88.7-2.88,1a4.94,4.94,0,0,1-1,0,2.54,2.54,0,0,0,.34-.49c.09-.2.21-.42.11-.62s.19-.89-1.3-.31a15.18,15.18,0,0,0-1.71.4c-1,.76-1.7-.27-3.47,0,0-.1,1.39.17.79-.48a2.61,2.61,0,0,0-.81-.42c-.81.22-1.58.47-2.35.72a10.73,10.73,0,0,0,2.37.18c1.08.54-.17.34-.87.49a6.67,6.67,0,0,0-2,.64c-.25.15.16.48.27.73a8.63,8.63,0,0,0,1.67-.33c.78-.38.61-.37,1.14-.14a2.65,2.65,0,0,1,1.58,1.53c.28.74,1.61,1.08,3.53.89a4.94,4.94,0,0,0,1,.4,11.76,11.76,0,0,0,1.42.17,4.13,4.13,0,0,1-.75.26c-.78.12-1.6.22-2.4.32.29.19.75.38.82.58s-.35.37-.55.56c-1,.59-1,.59.3.88.29.07.64.09,1,.14-.15.1-.28.28-.47.29-2.73.13-5.46.26-8.2.37-1.49.06-1-.44-1.3-.75-.42-.51-1-.5-1-.32.07.92-.82.49-2,.4a9,9,0,0,0-4.27.53c-2.23-.72-2.15.38-2.88.67a6.66,6.66,0,0,1-2.75.56c.2-.19.52-.37.57-.56s.07-.66-.22-.71c-.82-.16-1.55-.13-1.77.41a5.06,5.06,0,0,1-1.42,1.5,4.36,4.36,0,0,1-1,.35c-.18-.27-.37-.53-.59-.9,0,0,0,0,0,.1a5.07,5.07,0,0,0,.8-.17c.07,0-.16-.17-.25-.26a1.55,1.55,0,0,0-.58.33c-.77.08-2.49.29-2.13-.12.86-1-.68-1.31-2.07-1.77a5.65,5.65,0,0,1-.92-.49c3.18-.16,3.14-.18,5-1.25a6.09,6.09,0,0,1,2.11-.69,27.78,27.78,0,0,1,4.23.35c.7,0-.27-.09-1.25-.22a3.38,3.38,0,0,0-.54,0c.59.26,1.15.53,1.81.77a3,3,0,0,0,1,0c.23,0,.37-.18-1-.57-1.14-1,.25-.79,1.53-.53,1.94.38,2.21,0,2-.66,0-.19.22-.4.34-.6.43.13,1.13.23,1.25.4.58.84,2,.92,3.71.71s1.32.53,2.09.72a8.36,8.36,0,0,0,1.48,0,3.07,3.07,0,0,1-.53-.46,1.64,1.64,0,0,0-1.61-.72c-1.48.11-2.51.08-2.53-.7,0-.17-.79-.46-1.26-.48-1.09,0-2.21.13-3.31.1a4.36,4.36,0,0,1-1.8-.4c-.94-.63,1-.28,1.22-.53s1-.76,1.13-1.16a2.52,2.52,0,0,0-.41-1.55,1.79,1.79,0,0,0-1.06-.34c-.38,0-1.1.23-1.08.33.15.51-.55.8-1.49.63a5.1,5.1,0,0,1-1.87-1c-.06,0,.31-.27.5-.27,2,0,4-.12,5.93,0,2.42.09,4.77.44,7.22-.07a18.28,18.28,0,0,1,3.29-.16,16.67,16.67,0,0,1,3.07.17c1,.2,1.2-.61,2.49-.12s2.56-.1,3.7-.45a6.56,6.56,0,0,1,1.42.16,3.7,3.7,0,0,1-.77.68,5.24,5.24,0,0,1-1.07.06c-1.58.09-1.24.3-.28.61A14.07,14.07,0,0,1,1065.43,15.7Zm-30.21,6.69c.76-.16,1.53-.3,2.22-.48.16-.05.2-.32.06-.36-.49-.15-1.08-.24-1.63-.36a9.74,9.74,0,0,0-1.12.94c-.07.07.37.21,4.34,0l-.59-.24-.44.22c.24.06.47.13.72.17A21.35,21.35,0,0,0,1035.22,22.39Zm13.29-7.09a5.06,5.06,0,0,0-1.44.29,7.94,7.94,0,0,0-1.16,1.73s.26.09.4.13c1.63.48,2.41-.9,4.09-.3a3.54,3.54,0,0,0,.71-.53c.3-.47,1.07-1.08.63-1.38C1050.93,14.68,1050.17,15.89,1048.51,15.3Zm5.33,3.41c.22.4.24.7.58.93a3.4,3.4,0,0,0,1.42.09c1.93-.49-1.17-.84-.32-1.35.14-.08,0-.33-.23-.4a2.39,2.39,0,0,0-1,.05A2.45,2.45,0,0,0,1053.84,18.71Zm2.46,3.94c.67-.51,1.21-.9,1.66-1.31a7.74,7.74,0,0,0-1.08-.27,17.78,17.78,0,0,0-2,1.1A12.17,12.17,0,0,0,1056.3,22.65Zm-19.91.7-.91-.44-1.23.82a3.74,3.74,0,0,0,.94.08A9.14,9.14,0,0,0,1036.39,23.35Zm5.79-1.12-.67.19a1.59,1.59,0,0,0,.4.12,5.11,5.11,0,0,0,.7-.17Zm2-.68.35-.17a6.66,6.66,0,0,0-.78-.11c-.09,0-.21.1-.32.16Zm13.5-1.21c-.13,0-.31-.14-.4-.12a5.11,5.11,0,0,0-.7.17c.14,0,.31.14.4.12A5.11,5.11,0,0,0,1057.73,20.34ZM1070.84,15c1.82-.16.59-.71.86-1.06.07-.1.61-.13.93-.19.35,1,1,.5,2,.13.85-.31,2.42-.33,3.13-.67,1.21-.56,2-.14,3.16-.1a28.59,28.59,0,0,0,6.86-.43c1.71-.4,1.69.25,2.53.29-1.23.65-.43.94,1.06.62a13.44,13.44,0,0,1,4.09-.14,29.14,29.14,0,0,0,3.09.13c.89,0,1.71-.3,2.61-.36a8.27,8.27,0,0,1,2.55.06c1.85.81,4,.47,6.14.45,1.56,0,3.24-.46,4.68.16,1.09-.36,2.17-.79,3.45-.11a3.37,3.37,0,0,1,2.61-.39c.7.18,1.58.25,2.38.38-.73.12-1.43.3-2.19.35-1.45.11-2.93.17-4.41.21-1.71,0-3.22.17-4.13.85a3,3,0,0,1-1,0,7,7,0,0,1-.76-1,20.09,20.09,0,0,1-2.7.5c-1.44.1-.72.59-1.2.8a7.1,7.1,0,0,1-1.75.1c-.38-.74-.91-.66-2.23-.24-.61.2-2.68.48-2.69-.48l-1.11,0c.34,1.3-2.29.63-3.49.79-1.48.21,1.23-1.13-1.5-.81-1.41.16-3.4-.07-4.29.26a13.41,13.41,0,0,1-3.94.57c-.29-.16-.55-.34-.89-.49l-2.55-1.08-1,1.77a14.93,14.93,0,0,0-3.19-.1c-1.55.49-1.65-.29-2.5-.32-1,0-2.09,0-3.1-.11A9.49,9.49,0,0,1,1070.84,15Zm30.89-1.08-.47-.27c-.11.05-.34.13-.31.16a2.67,2.67,0,0,0,.43.29Zm-100.17,9.32a4.94,4.94,0,0,1,.67-.11,2.38,2.38,0,0,1,.42.57c0,.07-.24.16-1.5,0-.71,0-.66.47-.44.9.12.24.53.46.81.69.46-.24,1-.46,1.36-.71.15-.11-.22-.37-.06-.43.57-.19,1.76-.31,1.8-.49s-1.09-.67-.88-.86a8.33,8.33,0,0,1,2.11-.83c.31.14.92.3.88.43s-.86.63-.68.71a2.65,2.65,0,0,0,2.24-.17,10.29,10.29,0,0,1,1.6.23,6.28,6.28,0,0,0,1.58.12c1.42-.46,1.38-1.28-.26-1.52-1.12-.16-1.51-.3-1.28-.71.15-.25,1.74-.6-.33-.59a1.38,1.38,0,0,0-.88.61c-.13.21.16.45.11.67s-.31.35-.48.52c-.19-.11-.48-.22-.54-.35a5.69,5.69,0,0,1-.27-.89c-.16-.46-.12-.43-1.55-.07a4.66,4.66,0,0,1-1.81-.1c-.51-.15-.66-.49-1.11-.69a6.09,6.09,0,0,0-1.2-.14c.65.81-2.89.76-2,1.68.44.48.33,1,1.31,2C1001.78,23.73,1001.63,23.49,1001.56,23.25Zm95.23-2.06a21.64,21.64,0,0,0-4.86-.17,5.34,5.34,0,0,1-3.21,0,11.26,11.26,0,0,0-2.5.18c.63.13,1.32.22,1.88.39a3.52,3.52,0,0,1,1.17.55c-.78.41-.56.82.6.54a21.14,21.14,0,0,1,8.49-.37,8,8,0,0,0,3.08-.22,4.34,4.34,0,0,1,3.18-.1c1.11.24,2.57-.42,2.52-1.05,0-.11-.4-.21-.62-.32-1.39.83-2.41.72-3.12-.2a7.17,7.17,0,0,0-.72.12c.46.85-1.14.73-3.26.87C1099.12,21.42,1098,21.26,1096.79,21.19ZM1019,25.29c1.11.33,3.54-.35,3.67.77a3.32,3.32,0,0,0,1,.09c1.9-.14,3.8-.3,3.54.92,0,.05.18.14.32.16,1,.15,4-1,3.76-1.47,0-.12-.53-.33-.54-.33-1.82.47-4.08-1-5.75.2a4.67,4.67,0,0,1-1.06,0c0-.16-.1-.36.09-.47.71-.42.16-.64-.58-.92a5.48,5.48,0,0,0-3.44-.09,5.12,5.12,0,0,0-1.37.77C1018.8,25.17,1018.83,25.26,1019,25.29ZM971.46,14.55c-.18,0-.21.38-.19.59s.37.13.57.2c.69-.63,1.46-.4,2.35-.07s1,.32,3.1-.11a3.73,3.73,0,0,1,1.45,0c.65.22,1.09.54,1.68.79s1.26.49,1.9.73c1-.51.1-.78-.78-1.06,0,0,.15-.1.15-.16.06-1.22-.25-1.39-2.67-1.33-1.1,0-2.19.09-4.43.19C974.3,14.33,972.86,14.4,971.46,14.55Zm103,7.54c-.88.35-.12.5.66.4a19,19,0,0,1,2.68-.48c1.13,0,2.18.56,3.26.55a22.67,22.67,0,0,0,3.62-.56,16.24,16.24,0,0,0-2.58-.66c-1.65-.17-3.39-.2-5.89-.33C1074.23,20.59,1075.33,21.75,1074.49,22.09Zm-52.15.51a5.71,5.71,0,0,1,1,0c1.3,0,1.3,0,1.3-.59-1.19.08-2.39-.9-3.59,0a1.94,1.94,0,0,1-.72,0c-1.69-.88-3.07-.26-4.56.13-1.81.47.19.76.26,1.14C1018.17,23.17,1020.57,23.35,1022.34,22.6Zm74.4,3.46c.17,0,.28-.2.33-.31a.82.82,0,0,0-.41-.12,20.14,20.14,0,0,1-2.17.07c-1-.09-1.88-.31-2.81-.48a15,15,0,0,1,1.5-.79,8.83,8.83,0,0,1,1.36-.27,6.14,6.14,0,0,0-1.6-.53,7.32,7.32,0,0,0-2.48.11,10.61,10.61,0,0,0-2.14,1.62,1.14,1.14,0,0,0,.41.13c2.31-.08,3.69,1.34,6,.67C1095.66,26.12,1096.22,26.12,1096.74,26.06Zm-28.4-3.84c.42.51,1,1,1.51,1.51a1.77,1.77,0,0,0,2,.13c1.05-.73,1.7.29,2.54,0-.06-.22-.23-.44-.16-.65.22-.58-2.79.32-1.88-.71.23-.26-1.29-.78-2-1.18C1068.9,21.36,1067.74,21.48,1068.34,22.22Zm-16.49,2.66c-.48,0-1.95.42-1.44-.35.09-.14,0-.31-.07-.47l-1.65.07a5.34,5.34,0,0,1-1.11,1.8c-1.19,1,1.12.3,1.57.55,1,.54,1.2.21,1.25-.26s1.33-.35,2.1-.45C1051.39,25.59,1055.47,24.8,1051.85,24.88Zm20.22,1.46c1,.4,2.12.77,3.25,1.12a6.49,6.49,0,0,0,.87-.33c-2.86-.43,1.8-1.72-1.48-2.11.62-.42,1.27-.85,1.83-1.29.07-.06-.36-.22-.56-.33-.23.1-.44.21-.71.3s-.59.13-.89.2a11.18,11.18,0,0,1-.74,1.52c-.1.15-.65.24-1,.36S1071.93,26.28,1072.07,26.34Zm28.82.44c1.39-.41,2.82-.81,4-1.29.55-.22,1-.63.89-.94s-2.42-.29-3.21.15a25.24,25.24,0,0,0-2.66,1.82c-.06,0,0,.1,0,.16A4.86,4.86,0,0,0,1100.89,26.78ZM998.83,22a16,16,0,0,0-1.63-2,3.3,3.3,0,0,0-.65-.41,2,2,0,0,0-.46.36c-.24.4-.81.85-.54,1.19s1.34.62-.63.88c-1,.12.28.3.84.31,1.22,0,.94.23.42.51-.13.07.12.25.23.46C998,23,999.28,22.74,998.83,22Zm15.78,2.67c-1.06-.22-2.11-.48-3.25-.62a9.43,9.43,0,0,0-1.81.2c.18.19.26.42.56.58.7.38,2.4.46,2.06,1.15-.1.21-.22.43-.33.64a13,13,0,0,0,2.15-.1c1.12-.29-.21-.38-.44-.57-.42-.36-.58-.69.78-.79a4.78,4.78,0,0,0,.89-.21A3.13,3.13,0,0,0,1014.61,24.71Zm42,2.6a3.55,3.55,0,0,1,.62-.6,2.36,2.36,0,0,1,2.17-.1c.45.19.58.49,1,.69a1.33,1.33,0,0,0,1.51.06c.24-.19.49-.45.37-.64-.53-.82-2.29-.81-3.94-.89-1.3-.06-2.32.21-2.3.84Zm12.26-13c-1.25.36-3.42.5-3.45,1.4,1.63.36,3.13.51,4.23-.33a5.37,5.37,0,0,1,1.18-.36C1070.68,14.53,1070.65,13.78,1068.88,14.3ZM969.66,26.46a20.69,20.69,0,0,0-6.08-.35.9.9,0,0,0-.46.23c.23.11.59.18.81.29a1.71,1.71,0,0,0,1.93-.15c.46.27.82.72,1.4.77a17.4,17.4,0,0,0,2.8-.23C969.85,26.72,969.85,26.49,969.66,26.46Zm74.54.09a8,8,0,0,0,2.25-1.3,3.75,3.75,0,0,0-1.17-.37c-1.23.29-2.39.64-3.53,1-.13,0,0,.2-.07.47A10.9,10.9,0,0,0,1044.2,26.55Zm76.15-.73c.44-.13.14-.67.17-1a7.88,7.88,0,0,0-1.49.26,3.2,3.2,0,0,1-3,.32,3,3,0,0,0-.72.05,3.43,3.43,0,0,0,.43,1c0,.06.63.06.5.05A38.46,38.46,0,0,0,1120.35,25.82Zm-139.6-8a19,19,0,0,1,2.46.17c-.2-.27-.42-.77-.59-.77-2.33,0-4.65.15-7,.26a1,1,0,0,0-.35.17l.85.2,1.52.38C978.7,18.1,979.7,17.89,980.75,17.83Zm10.57,5.44c-.24.31-2,.8.53.65,1.87-.11,2.18.25,2.15.83,2-.26,1.11-.94.52-1.19-.89-.38-.91-1.43-3.34-.94C991.24,22.84,991.47,23.08,991.32,23.27Zm-31.08,2.48c-.25,0-.48-.11-.72-.17l.44-.22c.2.08.4.16,0,.13a2.83,2.83,0,0,0-1.49.51,6,6,0,0,0,1.23.26c1.1,0,2.19-.08,3.28-.13.2-.6-.7-1-1.85-1.19-.83-.15-1.79-.11-1.17.55C960.44,25.66,960.29,25.76,960.24,25.75Zm59.64-8.69a10,10,0,0,0-1-.65,12.93,12.93,0,0,0-1.66.47c-1.34.63.71.61,1.18.88a9.07,9.07,0,0,0,1.79.4l-.18-.66C1020,17.35,1020,17.19,1019.88,17.06Zm6.81,4.43a5,5,0,0,0-1.49-.36c-1.3.14-.53.58-.59.91a14.25,14.25,0,0,0,4.55.25C1028.34,22,1027.53,21.75,1026.69,21.49Zm-28.51-1.91a3.85,3.85,0,0,0,1-.39c-.88-.29-1.75-.6-2.68-.86-.06,0-.62.24-1.68.66C996.82,18.91,996.45,19.79,998.18,19.58ZM969,15c-.1-.5-.05-1.09-2-.82a5.59,5.59,0,0,0-1.43.43,13.61,13.61,0,0,0,3.4.83A1.22,1.22,0,0,0,969,15Zm70.4,11.79a9.15,9.15,0,0,0-.91.18,9.13,9.13,0,0,0,1.09.25c1,.12,2,.26,3,.31a6.58,6.58,0,0,0,1.39-.25,12,12,0,0,0-1.81-.6,8.35,8.35,0,0,0-1.63.05C1040.09,26.78,1039.71,26.77,1039.36,26.82ZM1110,21.46a.45.45,0,0,0-.36.35.43.43,0,0,0,.34.37c1,.24,3.8-.12,4-.5.07-.1-.21-.3-.43-.33a9.3,9.3,0,0,0-1.35-.05C1111.39,21.35,1110.68,21.37,1110,21.46Zm-56.33,4.61a.41.41,0,0,0-.22-.18,3.84,3.84,0,0,0-1-.1c-.21.05-.19.25-.31.38-.31.36.8,1.22,1.77,1.34a1.52,1.52,0,0,0,.53,0c.21-.08.33-.19.25-.14Zm-73.56.5c.86,0,1.73,0,2.59.05.66,0,1.29.16,1.95.19a1.87,1.87,0,0,0,.83-.22,1.21,1.21,0,0,0-.71-.5c-.69-.05-1.44,0-2.85.1Zm84.53-4.8-4.29,0c.17.12.31.34.5.34,1.11.05,2.19.06,2.11.7a5.9,5.9,0,0,0,.74,0,15.13,15.13,0,0,0,.94-1.26C1064.67,21.88,1064.67,21.82,1064.66,21.77Zm-107,4.89c-.77-.1-1.6-.13-2.4-.19,0,.07,0,.15.06.21.29.22.52.58.93.62a23,23,0,0,0,2.92-.1A8.14,8.14,0,0,0,957.69,26.66Zm-52.25-.22c-.92,0-1.85,0-2.75.12a6,6,0,0,0-1.05.26,4.38,4.38,0,0,0,1.28.39c1-.08,2-.29,3.06-.46C905.75,26.61,905.59,26.44,905.44,26.44Zm211-4.57c-.77-.11-1.6-.13-2.4-.19,0,.07,0,.15.06.21.29.22.52.58.93.62a23,23,0,0,0,2.92-.1A8.14,8.14,0,0,0,1116.48,21.87ZM899.75,24c-1.51-.08-3,.39-2.83.73.35.62,2,.08,3.07.17Zm106.28.42a2.59,2.59,0,0,0-.72,0,5.09,5.09,0,0,0-1.1.7c-.11.09.15.25.25.38a4.61,4.61,0,0,0,1.06-.21,5.12,5.12,0,0,0,.9-.61C1006.19,24.49,1006.13,24.39,1006,24.38Zm-737.65,1.4c-.55.1-1.08.22-1.62.33.66,0,1.32.09,2,.09a11.71,11.71,0,0,0,1.58-.07,3.1,3.1,0,0,0,.76-.26,2.22,2.22,0,0,0-.59-.18c-.53,0-1.06,0-1.6.06A4.28,4.28,0,0,0,268.38,25.78Zm816.95-.54a7,7,0,0,0-1.4.2l2.83.61.62-.56C1086.67,25.4,1086,25.26,1085.33,25.24Zm-129.43-.5a2.89,2.89,0,0,0-1.25-.47,10.18,10.18,0,0,0-1.94.21s0,.13,0,.14c.94.15,1.88.28,2.83.42C955.64,25,956,24.8,955.9,24.74Zm176.81-7.12c0-.1.08-.25,0-.29a11.65,11.65,0,0,0-1.72-.45,4.39,4.39,0,0,0-1,.09c.16.15.22.34.49.43a14.15,14.15,0,0,0,1.5.37A4,4,0,0,0,1132.71,17.62Zm-5.59-2.41a3.1,3.1,0,0,0,.79-.24l-3.11-.47-.39.6C1125.36,15.14,1126.24,15.21,1127.12,15.21Zm-16.07,1.65c-.84.05-1.68.14-2.48.25-.14,0-.17.27-.08.39a1.58,1.58,0,0,0,.58.31c.81-.23,1.59-.48,2.41-.74C1111.39,17,1111.18,16.85,1111.05,16.86ZM1040,25.18l-1.76-.58c-.15.18-.54.41-.39.53a5,5,0,0,0,1.26.43ZM909.27,26a10.51,10.51,0,0,0,1.44.15,18.69,18.69,0,0,0,1.87-.3l-1.53-.23Zm146.67,0c-.12-.44-.25-.89-.37-1.34C1054.18,25.25,1054.3,25.69,1055.94,26.07Zm16.65-.5a8.36,8.36,0,0,0-1.37-.16c-.64,0-1.25.17-1.87.26l1.72.29Zm6.78.4c0-.15-.47-.28-.72-.41l-1.3.65,1.5.38C1079.1,26.31,1079.41,26.13,1079.37,26Zm1.79.34c.15-.19.45-.38.4-.56s-.41-.5-.63-.75l-.74.7Zm43.1-.11a5.68,5.68,0,0,0,1.5.36c1.31-.13.53-.58.59-.9Zm-20.65-9.93c.08-.09-.26-.23-.41-.35l-1.69.67,1.26.26A5,5,0,0,0,1103.61,16.27Zm24.49-2.07c.21-.13.53-.27.58-.41s-.28-.24-.44-.35l-.91.2Zm1.14,1.62a3,3,0,0,0-.74-.13,1.53,1.53,0,0,0-.18.6,4.7,4.7,0,0,0,.9.18A1.45,1.45,0,0,0,1129.24,15.82ZM1124.18,26a2.9,2.9,0,0,0-.41-.57c-.24,0-.69.09-.68.11a5.63,5.63,0,0,0,.43.88C1123.94,26.16,1124.21,26.07,1124.18,26Zm-6.43-2.52a4.78,4.78,0,0,0-.94-.09,3.9,3.9,0,0,0-.89.32l1.52.18Zm-4,1.68a6,6,0,0,0-1-.23,3.53,3.53,0,0,0-.86.17l.51.37Zm-4.1,1.4a4.18,4.18,0,0,0-.94-.1,3.9,3.9,0,0,0-.89.32l1.52.18ZM1076.39,17c-.48,0-.94.13-1.41.2.17.09.34.27.5.26.48,0,1-.08,1.55-.14C1076.73,17.2,1076.52,17,1076.39,17Zm2,8c.21-.14.53-.27.58-.41s-.28-.24-.44-.35l-.91.2ZM1067,21.48c0-.14-.06-.28-.1-.42-.34.12-.89.22-1,.37s.26.36.59.74A3.48,3.48,0,0,0,1067,21.48Zm-.09,3.87a2.59,2.59,0,0,0-.5-.57c-.23.06-.66.13-.65.2a1.85,1.85,0,0,0,.36.62A3.69,3.69,0,0,0,1066.9,25.35ZM1062.37,19c.47,0,.93-.1,1.4-.16-.09-.1-.21-.28-.27-.28-.59,0-1.18.09-2.17.18A5.2,5.2,0,0,0,1062.37,19Zm-3.65-1.18c.14-.19.37-.39.37-.58s-.39-.21-.61-.31c-.18.18-.35.37-.5.53Zm-17.24-1.51c.48,0,.94-.11,1.4-.16-.09-.1-.2-.28-.26-.28-.6,0-1.18.09-2.17.18A5.19,5.19,0,0,0,1041.48,16.3Zm-25.19,4.09a3.43,3.43,0,0,0-.74-.14,1.53,1.53,0,0,0-.18.6,4.5,4.5,0,0,0,.9.18A1.4,1.4,0,0,0,1016.29,20.39Zm-6.29,5.7a2.91,2.91,0,0,0-.73-.13,1.4,1.4,0,0,0-.19.6,4.69,4.69,0,0,0,.91.18C1010,26.49,1010.09,26.29,1010,26.09Zm-6.33-7a3.93,3.93,0,0,0-.9-.17,11.43,11.43,0,0,0-1.32.27l1,.22Zm-34.59-3.66,1,.41,1.25-.51Zm2.21,8.25a2.55,2.55,0,0,0-.5-.57c-.23.07-.65.14-.64.2s.21.39.36.63C970.89,23.85,971.31,23.77,971.29,23.71ZM964.48,15a14,14,0,0,0-1.44-.14,2.92,2.92,0,0,0-.78.24l1.32.21Zm-9.19,11.49c0-.15-.08-.29-.13-.44l-2.21.09C953.23,26.79,954.43,26.44,955.29,26.47Zm105.5-1.06c.1-.11.24-.21.27-.32s-.25-.09-.39-.13l-.31.3Zm.25-1.15c-.26,0-.51-.09-.78-.1-.09,0-.22.1-.32.15l.75.13Zm-.17-4.74,1-.49Zm1.79-1.66c-.14,0-.32-.14-.4-.12a4.92,4.92,0,0,0-.71.17l.44.14Zm4.78,5.22A1.45,1.45,0,0,0,1067,23a7.16,7.16,0,0,0-.7.17l.44.15C1067,23.2,1067.21,23.14,1067.44,23.08Zm-.55-2a5.33,5.33,0,0,0,.8-.17c.06,0-.16-.17-.26-.26l-.6.24Zm.19-3.4a1.59,1.59,0,0,0-.4-.12,7.16,7.16,0,0,0-.7.17l.43.14ZM961,24a6.68,6.68,0,0,0-.71.18,1.72,1.72,0,0,0,.4.12,5.26,5.26,0,0,0,.71-.17A1.51,1.51,0,0,0,961,24ZM838,10.88a5.07,5.07,0,0,0,.8-.17c.06,0-.16-.17-.26-.27l-.59.24Zm232.36,10.48a5.33,5.33,0,0,0,.8-.17c.06,0-.16-.17-.26-.26l-.6.23Zm9.67,5.38.64-.41-1.11.05Zm1.65-10.85-.44.22.72.17a1.85,1.85,0,0,0,.32-.16Zm4.1,4.56a1.45,1.45,0,0,0,.41.13,7.15,7.15,0,0,0,.7-.18l-.44-.14Zm-.11-4.54-.55-.18a3.82,3.82,0,0,0-.42.29,2.09,2.09,0,0,0,.38.13Zm6.75,4.25a6.65,6.65,0,0,0,.78.1c.09,0,.22-.1.33-.15l-.76-.13Zm.81-4.48a2.14,2.14,0,0,0-.43-.29c-.11.06-.33.13-.3.16a1.55,1.55,0,0,0,.42.29C1093,15.78,1093.23,15.71,1093.2,15.68Zm21.45-.13a1.87,1.87,0,0,0-.4-.12,4.92,4.92,0,0,0-.71.17l.44.14Zm3.8,1.64a1.59,1.59,0,0,0-.4-.12,5.11,5.11,0,0,0-.7.17l.43.14Zm-.67-1.7a2.13,2.13,0,0,0-.43-.28c-.11,0-.33.12-.3.16a1.8,1.8,0,0,0,.42.28C1117.58,15.6,1117.81,15.53,1117.78,15.49Zm4.83,8.75a1.72,1.72,0,0,0-.4-.12,5.26,5.26,0,0,0-.71.17l.44.14Zm-2-6.61a2.14,2.14,0,0,0-.43-.29c-.11.06-.33.13-.3.16a1.81,1.81,0,0,0,.42.29C1120.4,17.73,1120.63,17.66,1120.6,17.63Zm-.06-1-.55-.18a2.83,2.83,0,0,0-.42.3,2.46,2.46,0,0,0,.38.12Zm-.06-.2a5.07,5.07,0,0,0,.8-.17c.07,0-.16-.17-.25-.26l-.6.23C1120.45,16.29,1120.46,16.36,1120.48,16.42Zm5.87,9.24a5.47,5.47,0,0,0,.81-.17c.06,0-.17-.17-.26-.27l-.6.24A1.46,1.46,0,0,1,1126.35,25.66Zm.81-1.17a1.31,1.31,0,0,0,.4.13,7.15,7.15,0,0,0,.7-.18l-.43-.14Zm6.32,2.66a1.61,1.61,0,0,0-.43-.32,3.2,3.2,0,0,0-.65.1l.58.24Zm-142.62.46c.1-.11.24-.21.27-.32s-.25-.09-.39-.13l-.32.31Zm8.18-.82a1.61,1.61,0,0,0-.43-.32,3.1,3.1,0,0,0-.65.1l.58.24Zm-61.79.57a5.26,5.26,0,0,0-.71.17,1.51,1.51,0,0,0,.4.13,6.68,6.68,0,0,0,.71-.18A1.72,1.72,0,0,0,937.25,27.36ZM1134,27.13l-.44.22c.24.06.47.13.72.17,0,0,.2-.1.32-.15Zm1.26-3.14c-.1,0-.22.1-.33.16m-1.48-8.22a6.68,6.68,0,0,0-.71.18,1.72,1.72,0,0,0,.4.12M999.53,26.77l-.44.22c.24.06.47.13.72.17,0,0,.2-.1.31-.15Zm2.17-8.69c-.09.1-.23.21-.26.32s.25.08.38.13l.32-.31Zm3.81,1.64c.11,0,.33-.13.3-.16a2.18,2.18,0,0,0-.42-.29l-.35.18Zm2.68,5.76c.1-.1.24-.21.27-.32s-.25-.08-.39-.13l-.31.31Zm-1.94-7.15c-.1.11-.24.21-.26.32s.24.08.38.13l.32-.31Zm6.5,5.37a1.59,1.59,0,0,0,.4.12,7.16,7.16,0,0,0,.7-.17l-.43-.15Zm3.31-.18-.55-.17a2.22,2.22,0,0,0-.42.29,2.94,2.94,0,0,0,.38.12Zm4.63-5.38-.44.22c.24.06.47.13.72.17,0,0,.2-.09.31-.15Zm-50.2.42c.11,0,.33-.12.3-.16a2.54,2.54,0,0,0-.42-.29l-.35.18Zm1.9.82a5.33,5.33,0,0,0,.8-.17c.06,0-.16-.17-.26-.26l-.6.23ZM316.8,29.28a6.83,6.83,0,0,0-.79-.11c-.09,0-.21.1-.32.16l.76.12Zm715.35-2.15c.1-.11.24-.21.27-.32s-.25-.08-.39-.13c-.1.11-.21.21-.31.31Zm-59.39-9.72a2.67,2.67,0,0,0-.43-.29c-.1.06-.33.13-.3.17a2.13,2.13,0,0,0,.43.28C972.57,17.52,972.79,17.44,972.76,17.41Zm5.08,9.64a6.37,6.37,0,0,0,.78.11c.09,0,.21-.1.32-.15l-.75-.13Zm-22.68-1a5.15,5.15,0,0,0,.81-.18c.06,0-.17-.17-.26-.26l-.6.24A1.17,1.17,0,0,1,955.16,26ZM1041,16.54l-.55-.18a2.37,2.37,0,0,0-.42.29,1.66,1.66,0,0,0,.38.12Zm-68,9.9a1.88,1.88,0,0,0-.43-.28c-.11.05-.33.12-.3.16a2.28,2.28,0,0,0,.43.29C972.79,26.55,973,26.48,973,26.44Zm76.62,1a6.66,6.66,0,0,0-.78-.11c-.09,0-.21.1-.32.15l.75.13Zm-.91-3.36a1.5,1.5,0,0,0-.43-.32,4.32,4.32,0,0,0-.65.1l.59.25Zm6.88.6a5.07,5.07,0,0,0,.8-.17c.07,0-.16-.17-.25-.26l-.6.23Zm-154,1.87-1.23-.4Zm-1.23-.4a1.41,1.41,0,0,0-.42-.32,3.1,3.1,0,0,0-.65.1l.58.24ZM985,20.41a6.66,6.66,0,0,0-.78-.11c-.09,0-.21.1-.32.15l.75.13ZM251.16,10.26a5.42,5.42,0,0,0,.81-.18c.06,0-.17-.17-.26-.26l-.6.24A1.17,1.17,0,0,1,251.16,10.26ZM211,13l-.44.22.72.17a1.85,1.85,0,0,0,.32-.16Z" style="fill:#fa2862"/></svg>